<mxfile host="Electron" modified="2023-05-06T14:55:12.884Z" agent="Mozilla/5.0 (Windows NT 10.0; Win64; x64) AppleWebKit/537.36 (KHTML, like Gecko) draw.io/21.2.1 Chrome/112.0.5615.87 Electron/24.1.2 Safari/537.36" etag="M_hptOPcOuTpkY2U6l03" version="21.2.1" type="device">
  <diagram id="R2lEEEUBdFMjLlhIrx00" name="Page-1">
    <mxGraphModel dx="2580" dy="1624" grid="1" gridSize="10" guides="1" tooltips="1" connect="1" arrows="1" fold="1" page="1" pageScale="1" pageWidth="850" pageHeight="1100" math="0" shadow="0" extFonts="Permanent Marker^https://fonts.googleapis.com/css?family=Permanent+Marker">
      <root>
        <mxCell id="0" />
        <mxCell id="1" parent="0" />
        <mxCell id="8r8kBKlHQmbd7kV8AP0j-182" style="edgeStyle=orthogonalEdgeStyle;shape=connector;rounded=0;orthogonalLoop=1;jettySize=auto;html=1;exitX=0.25;exitY=1;exitDx=0;exitDy=0;entryX=0.5;entryY=0;entryDx=0;entryDy=0;labelBackgroundColor=default;strokeColor=default;fontFamily=Helvetica;fontSize=11;fontColor=default;endArrow=none;endFill=0;" parent="1" source="8r8kBKlHQmbd7kV8AP0j-4" target="8r8kBKlHQmbd7kV8AP0j-11" edge="1">
          <mxGeometry relative="1" as="geometry" />
        </mxCell>
        <mxCell id="8r8kBKlHQmbd7kV8AP0j-4" value="User Account" style="whiteSpace=wrap;html=1;align=center;rounded=0;" parent="1" vertex="1">
          <mxGeometry x="-917.5" y="-320" width="100" height="40" as="geometry" />
        </mxCell>
        <mxCell id="8r8kBKlHQmbd7kV8AP0j-5" style="edgeStyle=orthogonalEdgeStyle;shape=connector;rounded=0;orthogonalLoop=1;jettySize=auto;html=1;exitX=0.5;exitY=1;exitDx=0;exitDy=0;entryX=0.75;entryY=0;entryDx=0;entryDy=0;labelBackgroundColor=default;strokeColor=default;fontFamily=Helvetica;fontSize=11;fontColor=default;endArrow=none;endFill=0;" parent="1" source="8r8kBKlHQmbd7kV8AP0j-6" target="8r8kBKlHQmbd7kV8AP0j-4" edge="1">
          <mxGeometry relative="1" as="geometry" />
        </mxCell>
        <mxCell id="8r8kBKlHQmbd7kV8AP0j-6" value="username" style="ellipse;whiteSpace=wrap;html=1;align=center;fontStyle=4;rounded=0;" parent="1" vertex="1">
          <mxGeometry x="-872.5" y="-370" width="70" height="30" as="geometry" />
        </mxCell>
        <mxCell id="8r8kBKlHQmbd7kV8AP0j-7" style="edgeStyle=orthogonalEdgeStyle;shape=connector;rounded=0;orthogonalLoop=1;jettySize=auto;html=1;exitX=0.5;exitY=1;exitDx=0;exitDy=0;entryX=0.25;entryY=0;entryDx=0;entryDy=0;labelBackgroundColor=default;strokeColor=default;fontFamily=Helvetica;fontSize=11;fontColor=default;endArrow=none;endFill=0;" parent="1" source="8r8kBKlHQmbd7kV8AP0j-8" target="8r8kBKlHQmbd7kV8AP0j-4" edge="1">
          <mxGeometry relative="1" as="geometry" />
        </mxCell>
        <mxCell id="8r8kBKlHQmbd7kV8AP0j-8" value="password" style="ellipse;whiteSpace=wrap;html=1;align=center;rounded=0;" parent="1" vertex="1">
          <mxGeometry x="-960" y="-365" width="80" height="20" as="geometry" />
        </mxCell>
        <mxCell id="8r8kBKlHQmbd7kV8AP0j-178" style="edgeStyle=orthogonalEdgeStyle;shape=connector;rounded=0;orthogonalLoop=1;jettySize=auto;html=1;exitX=0;exitY=0;exitDx=0;exitDy=0;entryX=0.385;entryY=1.042;entryDx=0;entryDy=0;entryPerimeter=0;labelBackgroundColor=default;strokeColor=default;fontFamily=Helvetica;fontSize=11;fontColor=default;endArrow=none;endFill=0;" parent="1" source="8r8kBKlHQmbd7kV8AP0j-10" target="8r8kBKlHQmbd7kV8AP0j-4" edge="1">
          <mxGeometry relative="1" as="geometry" />
        </mxCell>
        <mxCell id="8r8kBKlHQmbd7kV8AP0j-179" style="edgeStyle=orthogonalEdgeStyle;shape=connector;rounded=0;orthogonalLoop=1;jettySize=auto;html=1;exitX=1;exitY=0;exitDx=0;exitDy=0;entryX=0.562;entryY=1.012;entryDx=0;entryDy=0;entryPerimeter=0;labelBackgroundColor=default;strokeColor=default;fontFamily=Helvetica;fontSize=11;fontColor=default;endArrow=none;endFill=0;" parent="1" source="8r8kBKlHQmbd7kV8AP0j-10" target="8r8kBKlHQmbd7kV8AP0j-4" edge="1">
          <mxGeometry relative="1" as="geometry" />
        </mxCell>
        <mxCell id="8r8kBKlHQmbd7kV8AP0j-180" style="edgeStyle=orthogonalEdgeStyle;shape=connector;rounded=0;orthogonalLoop=1;jettySize=auto;html=1;exitX=0.5;exitY=1;exitDx=0;exitDy=0;entryX=0.25;entryY=0;entryDx=0;entryDy=0;labelBackgroundColor=default;strokeColor=default;fontFamily=Helvetica;fontSize=11;fontColor=default;endArrow=none;endFill=0;" parent="1" source="8r8kBKlHQmbd7kV8AP0j-10" target="8r8kBKlHQmbd7kV8AP0j-13" edge="1">
          <mxGeometry relative="1" as="geometry" />
        </mxCell>
        <mxCell id="8r8kBKlHQmbd7kV8AP0j-181" style="edgeStyle=orthogonalEdgeStyle;shape=connector;rounded=0;orthogonalLoop=1;jettySize=auto;html=1;exitX=1;exitY=0.5;exitDx=0;exitDy=0;entryX=0;entryY=0.25;entryDx=0;entryDy=0;labelBackgroundColor=default;strokeColor=default;fontFamily=Helvetica;fontSize=11;fontColor=default;endArrow=none;endFill=0;" parent="1" source="8r8kBKlHQmbd7kV8AP0j-10" target="8r8kBKlHQmbd7kV8AP0j-137" edge="1">
          <mxGeometry relative="1" as="geometry" />
        </mxCell>
        <mxCell id="8r8kBKlHQmbd7kV8AP0j-10" value="d" style="ellipse;whiteSpace=wrap;html=1;aspect=fixed;" parent="1" vertex="1">
          <mxGeometry x="-882.5" y="-250" width="25" height="25" as="geometry" />
        </mxCell>
        <mxCell id="8r8kBKlHQmbd7kV8AP0j-11" value="Admin" style="whiteSpace=wrap;html=1;align=center;rounded=0;" parent="1" vertex="1">
          <mxGeometry x="-1087.5" y="-120" width="100" height="40" as="geometry" />
        </mxCell>
        <mxCell id="8r8kBKlHQmbd7kV8AP0j-256" style="edgeStyle=orthogonalEdgeStyle;shape=connector;rounded=0;orthogonalLoop=1;jettySize=auto;html=1;exitX=1;exitY=0.25;exitDx=0;exitDy=0;entryX=0;entryY=0.5;entryDx=0;entryDy=0;labelBackgroundColor=default;strokeColor=default;fontFamily=Helvetica;fontSize=11;fontColor=default;endArrow=none;endFill=0;startArrow=ERmandOne;startFill=0;" parent="1" source="8r8kBKlHQmbd7kV8AP0j-13" target="8r8kBKlHQmbd7kV8AP0j-254" edge="1">
          <mxGeometry relative="1" as="geometry">
            <Array as="points">
              <mxPoint x="-730" y="-121" />
              <mxPoint x="-730" y="-220" />
              <mxPoint x="-546" y="-220" />
            </Array>
          </mxGeometry>
        </mxCell>
        <mxCell id="8r8kBKlHQmbd7kV8AP0j-267" style="edgeStyle=orthogonalEdgeStyle;shape=connector;rounded=0;orthogonalLoop=1;jettySize=auto;html=1;exitX=0;exitY=1;exitDx=0;exitDy=0;entryX=0.5;entryY=0;entryDx=0;entryDy=0;labelBackgroundColor=default;strokeColor=default;fontFamily=Helvetica;fontSize=11;fontColor=default;endArrow=none;endFill=0;startArrow=ERmandOne;startFill=0;" parent="1" source="8r8kBKlHQmbd7kV8AP0j-13" target="8r8kBKlHQmbd7kV8AP0j-39" edge="1">
          <mxGeometry relative="1" as="geometry">
            <Array as="points">
              <mxPoint x="-900" y="-90" />
              <mxPoint x="-900" y="-60" />
              <mxPoint x="-990" y="-60" />
              <mxPoint x="-990" y="46" />
              <mxPoint x="-1083" y="46" />
            </Array>
          </mxGeometry>
        </mxCell>
        <mxCell id="8r8kBKlHQmbd7kV8AP0j-307" style="edgeStyle=orthogonalEdgeStyle;shape=connector;rounded=0;orthogonalLoop=1;jettySize=auto;html=1;exitX=0.75;exitY=1;exitDx=0;exitDy=0;entryX=0;entryY=0.5;entryDx=0;entryDy=0;labelBackgroundColor=default;strokeColor=default;fontFamily=Helvetica;fontSize=11;fontColor=default;endArrow=none;endFill=0;startArrow=ERmandOne;startFill=0;" parent="1" source="8r8kBKlHQmbd7kV8AP0j-13" target="8r8kBKlHQmbd7kV8AP0j-306" edge="1">
          <mxGeometry relative="1" as="geometry">
            <Array as="points">
              <mxPoint x="-822" y="-60" />
              <mxPoint x="-792" y="-60" />
            </Array>
          </mxGeometry>
        </mxCell>
        <mxCell id="8r8kBKlHQmbd7kV8AP0j-13" value="Banker" style="whiteSpace=wrap;html=1;align=center;rounded=0;" parent="1" vertex="1">
          <mxGeometry x="-887.5" y="-131.87" width="87.5" height="41.87" as="geometry" />
        </mxCell>
        <mxCell id="8r8kBKlHQmbd7kV8AP0j-14" style="edgeStyle=orthogonalEdgeStyle;rounded=0;orthogonalLoop=1;jettySize=auto;html=1;exitX=1;exitY=0.5;exitDx=0;exitDy=0;entryX=0;entryY=0;entryDx=0;entryDy=0;endArrow=none;endFill=0;" parent="1" source="8r8kBKlHQmbd7kV8AP0j-15" target="8r8kBKlHQmbd7kV8AP0j-13" edge="1">
          <mxGeometry relative="1" as="geometry" />
        </mxCell>
        <mxCell id="8r8kBKlHQmbd7kV8AP0j-15" value="Name" style="ellipse;whiteSpace=wrap;html=1;align=center;rounded=0;" parent="1" vertex="1">
          <mxGeometry x="-942.5" y="-180" width="40" height="30" as="geometry" />
        </mxCell>
        <mxCell id="8r8kBKlHQmbd7kV8AP0j-184" style="edgeStyle=orthogonalEdgeStyle;shape=connector;rounded=0;orthogonalLoop=1;jettySize=auto;html=1;exitX=1;exitY=1;exitDx=0;exitDy=0;entryX=0;entryY=0.25;entryDx=0;entryDy=0;labelBackgroundColor=default;strokeColor=default;fontFamily=Helvetica;fontSize=11;fontColor=default;endArrow=none;endFill=0;" parent="1" source="8r8kBKlHQmbd7kV8AP0j-17" target="8r8kBKlHQmbd7kV8AP0j-13" edge="1">
          <mxGeometry relative="1" as="geometry">
            <Array as="points">
              <mxPoint x="-912" y="-124" />
            </Array>
          </mxGeometry>
        </mxCell>
        <mxCell id="8r8kBKlHQmbd7kV8AP0j-17" value="Employee ID" style="ellipse;whiteSpace=wrap;html=1;align=center;fontStyle=4;rounded=0;" parent="1" vertex="1">
          <mxGeometry x="-980" y="-145" width="80" height="30" as="geometry" />
        </mxCell>
        <mxCell id="8r8kBKlHQmbd7kV8AP0j-185" style="edgeStyle=orthogonalEdgeStyle;shape=connector;rounded=0;orthogonalLoop=1;jettySize=auto;html=1;exitX=1;exitY=0;exitDx=0;exitDy=0;entryX=0;entryY=0.5;entryDx=0;entryDy=0;labelBackgroundColor=default;strokeColor=default;fontFamily=Helvetica;fontSize=11;fontColor=default;endArrow=none;endFill=0;" parent="1" source="8r8kBKlHQmbd7kV8AP0j-18" target="8r8kBKlHQmbd7kV8AP0j-13" edge="1">
          <mxGeometry relative="1" as="geometry">
            <Array as="points">
              <mxPoint x="-900" y="-106" />
              <mxPoint x="-900" y="-117" />
            </Array>
          </mxGeometry>
        </mxCell>
        <mxCell id="8r8kBKlHQmbd7kV8AP0j-18" value="Email" style="ellipse;whiteSpace=wrap;html=1;align=center;rounded=0;" parent="1" vertex="1">
          <mxGeometry x="-945" y="-110" width="40" height="30" as="geometry" />
        </mxCell>
        <mxCell id="8r8kBKlHQmbd7kV8AP0j-269" style="edgeStyle=orthogonalEdgeStyle;shape=connector;rounded=0;orthogonalLoop=1;jettySize=auto;html=1;exitX=0.75;exitY=0;exitDx=0;exitDy=0;entryX=0;entryY=0.5;entryDx=0;entryDy=0;labelBackgroundColor=default;strokeColor=default;fontFamily=Helvetica;fontSize=11;fontColor=default;endArrow=none;endFill=0;startArrow=ERzeroToMany;startFill=0;" parent="1" source="8r8kBKlHQmbd7kV8AP0j-21" target="8r8kBKlHQmbd7kV8AP0j-268" edge="1">
          <mxGeometry relative="1" as="geometry" />
        </mxCell>
        <mxCell id="8r8kBKlHQmbd7kV8AP0j-21" value="Credit Card" style="whiteSpace=wrap;html=1;align=center;rounded=0;" parent="1" vertex="1">
          <mxGeometry x="-1127.5" y="260" width="100" height="40" as="geometry" />
        </mxCell>
        <mxCell id="8r8kBKlHQmbd7kV8AP0j-22" style="edgeStyle=orthogonalEdgeStyle;rounded=0;orthogonalLoop=1;jettySize=auto;html=1;exitX=0.5;exitY=1;exitDx=0;exitDy=0;entryX=0.25;entryY=0;entryDx=0;entryDy=0;endArrow=none;endFill=0;" parent="1" source="8r8kBKlHQmbd7kV8AP0j-23" target="8r8kBKlHQmbd7kV8AP0j-21" edge="1">
          <mxGeometry relative="1" as="geometry" />
        </mxCell>
        <mxCell id="8r8kBKlHQmbd7kV8AP0j-23" value="expiry date" style="ellipse;whiteSpace=wrap;html=1;align=center;rounded=0;" parent="1" vertex="1">
          <mxGeometry x="-1175" y="150" width="60" height="35" as="geometry" />
        </mxCell>
        <mxCell id="8r8kBKlHQmbd7kV8AP0j-24" value="limit" style="ellipse;whiteSpace=wrap;html=1;align=center;rounded=0;" parent="1" vertex="1">
          <mxGeometry x="-1235" y="215" width="50" height="20" as="geometry" />
        </mxCell>
        <mxCell id="8r8kBKlHQmbd7kV8AP0j-25" style="edgeStyle=orthogonalEdgeStyle;shape=connector;rounded=0;orthogonalLoop=1;jettySize=auto;html=1;exitX=1;exitY=0.5;exitDx=0;exitDy=0;entryX=0;entryY=0.75;entryDx=0;entryDy=0;labelBackgroundColor=default;strokeColor=default;fontFamily=Helvetica;fontSize=11;fontColor=default;endArrow=none;endFill=0;" parent="1" source="8r8kBKlHQmbd7kV8AP0j-26" target="8r8kBKlHQmbd7kV8AP0j-21" edge="1">
          <mxGeometry relative="1" as="geometry">
            <Array as="points">
              <mxPoint x="-1145" y="316.5" />
              <mxPoint x="-1145" y="280.5" />
            </Array>
          </mxGeometry>
        </mxCell>
        <mxCell id="8r8kBKlHQmbd7kV8AP0j-26" value="amount" style="ellipse;whiteSpace=wrap;html=1;align=center;rounded=0;" parent="1" vertex="1">
          <mxGeometry x="-1250" y="300" width="50" height="32.5" as="geometry" />
        </mxCell>
        <mxCell id="8r8kBKlHQmbd7kV8AP0j-27" style="edgeStyle=orthogonalEdgeStyle;shape=connector;rounded=0;orthogonalLoop=1;jettySize=auto;html=1;exitX=1;exitY=0.5;exitDx=0;exitDy=0;entryX=0;entryY=0.25;entryDx=0;entryDy=0;labelBackgroundColor=default;strokeColor=default;fontFamily=Helvetica;fontSize=11;fontColor=default;endArrow=none;endFill=0;" parent="1" source="8r8kBKlHQmbd7kV8AP0j-28" target="8r8kBKlHQmbd7kV8AP0j-21" edge="1">
          <mxGeometry relative="1" as="geometry" />
        </mxCell>
        <mxCell id="8r8kBKlHQmbd7kV8AP0j-28" value="PIN" style="ellipse;whiteSpace=wrap;html=1;align=center;rounded=0;" parent="1" vertex="1">
          <mxGeometry x="-1240" y="237.5" width="40" height="20" as="geometry" />
        </mxCell>
        <mxCell id="8r8kBKlHQmbd7kV8AP0j-29" style="edgeStyle=orthogonalEdgeStyle;rounded=0;orthogonalLoop=1;jettySize=auto;html=1;exitX=0.5;exitY=1;exitDx=0;exitDy=0;entryX=0;entryY=0;entryDx=0;entryDy=0;endArrow=none;endFill=0;" parent="1" source="8r8kBKlHQmbd7kV8AP0j-30" target="8r8kBKlHQmbd7kV8AP0j-21" edge="1">
          <mxGeometry relative="1" as="geometry">
            <Array as="points">
              <mxPoint x="-1170" y="215" />
              <mxPoint x="-1170" y="238" />
              <mxPoint x="-1127" y="238" />
            </Array>
          </mxGeometry>
        </mxCell>
        <mxCell id="8r8kBKlHQmbd7kV8AP0j-30" value="credit_card_Number" style="ellipse;whiteSpace=wrap;html=1;align=center;fontStyle=4;rounded=0;" parent="1" vertex="1">
          <mxGeometry x="-1265" y="182.5" width="110" height="32.5" as="geometry" />
        </mxCell>
        <mxCell id="8r8kBKlHQmbd7kV8AP0j-31" style="edgeStyle=orthogonalEdgeStyle;shape=connector;rounded=0;orthogonalLoop=1;jettySize=auto;html=1;exitX=1;exitY=0.5;exitDx=0;exitDy=0;entryX=0;entryY=0.5;entryDx=0;entryDy=0;labelBackgroundColor=default;strokeColor=default;fontFamily=Helvetica;fontSize=11;fontColor=default;endArrow=none;endFill=0;" parent="1" source="8r8kBKlHQmbd7kV8AP0j-32" target="8r8kBKlHQmbd7kV8AP0j-21" edge="1">
          <mxGeometry relative="1" as="geometry" />
        </mxCell>
        <mxCell id="8r8kBKlHQmbd7kV8AP0j-32" value="CVV" style="ellipse;whiteSpace=wrap;html=1;align=center;rounded=0;" parent="1" vertex="1">
          <mxGeometry x="-1240" y="270" width="40" height="20" as="geometry" />
        </mxCell>
        <mxCell id="8r8kBKlHQmbd7kV8AP0j-34" style="edgeStyle=orthogonalEdgeStyle;shape=connector;rounded=0;orthogonalLoop=1;jettySize=auto;html=1;exitX=1;exitY=0.5;exitDx=0;exitDy=0;entryX=0.25;entryY=1;entryDx=0;entryDy=0;labelBackgroundColor=default;strokeColor=default;fontFamily=Helvetica;fontSize=11;fontColor=default;endArrow=none;endFill=0;" parent="1" source="8r8kBKlHQmbd7kV8AP0j-35" target="8r8kBKlHQmbd7kV8AP0j-21" edge="1">
          <mxGeometry relative="1" as="geometry" />
        </mxCell>
        <mxCell id="8r8kBKlHQmbd7kV8AP0j-35" value="transaction histotry" style="ellipse;whiteSpace=wrap;html=1;align=center;fontFamily=Helvetica;fontSize=11;fontColor=default;" parent="1" vertex="1">
          <mxGeometry x="-1280" y="372.5" width="75" height="35" as="geometry" />
        </mxCell>
        <mxCell id="8r8kBKlHQmbd7kV8AP0j-36" style="edgeStyle=orthogonalEdgeStyle;shape=connector;rounded=0;orthogonalLoop=1;jettySize=auto;html=1;exitX=1;exitY=0.5;exitDx=0;exitDy=0;entryX=0;entryY=1;entryDx=0;entryDy=0;labelBackgroundColor=default;strokeColor=default;fontFamily=Helvetica;fontSize=11;fontColor=default;endArrow=none;endFill=0;" parent="1" source="8r8kBKlHQmbd7kV8AP0j-37" target="8r8kBKlHQmbd7kV8AP0j-21" edge="1">
          <mxGeometry relative="1" as="geometry" />
        </mxCell>
        <mxCell id="8r8kBKlHQmbd7kV8AP0j-37" value="state" style="ellipse;whiteSpace=wrap;html=1;align=center;fontFamily=Helvetica;fontSize=11;fontColor=default;" parent="1" vertex="1">
          <mxGeometry x="-1250" y="345" width="40" height="20" as="geometry" />
        </mxCell>
        <mxCell id="8r8kBKlHQmbd7kV8AP0j-266" style="edgeStyle=orthogonalEdgeStyle;shape=connector;rounded=0;orthogonalLoop=1;jettySize=auto;html=1;exitX=0.5;exitY=1;exitDx=0;exitDy=0;entryX=0.5;entryY=0;entryDx=0;entryDy=0;labelBackgroundColor=default;strokeColor=default;fontFamily=Helvetica;fontSize=11;fontColor=default;endArrow=ERzeroToMany;endFill=0;" parent="1" source="8r8kBKlHQmbd7kV8AP0j-39" target="8r8kBKlHQmbd7kV8AP0j-21" edge="1">
          <mxGeometry relative="1" as="geometry" />
        </mxCell>
        <mxCell id="8r8kBKlHQmbd7kV8AP0j-39" value="tracks" style="shape=rhombus;perimeter=rhombusPerimeter;whiteSpace=wrap;html=1;align=center;fontFamily=Helvetica;fontSize=11;fontColor=default;" parent="1" vertex="1">
          <mxGeometry x="-1115" y="182.5" width="65" height="32.5" as="geometry" />
        </mxCell>
        <mxCell id="8r8kBKlHQmbd7kV8AP0j-53" style="edgeStyle=orthogonalEdgeStyle;rounded=0;orthogonalLoop=1;jettySize=auto;html=1;exitX=0;exitY=0.5;exitDx=0;exitDy=0;entryX=0.5;entryY=0;entryDx=0;entryDy=0;endArrow=none;endFill=0;" parent="1" source="8r8kBKlHQmbd7kV8AP0j-40" target="8r8kBKlHQmbd7kV8AP0j-52" edge="1">
          <mxGeometry relative="1" as="geometry" />
        </mxCell>
        <mxCell id="8r8kBKlHQmbd7kV8AP0j-54" style="edgeStyle=orthogonalEdgeStyle;shape=connector;rounded=0;orthogonalLoop=1;jettySize=auto;html=1;exitX=0;exitY=0.75;exitDx=0;exitDy=0;entryX=0.5;entryY=0;entryDx=0;entryDy=0;labelBackgroundColor=default;strokeColor=default;fontFamily=Helvetica;fontSize=11;fontColor=default;endArrow=none;endFill=0;" parent="1" source="8r8kBKlHQmbd7kV8AP0j-40" target="8r8kBKlHQmbd7kV8AP0j-50" edge="1">
          <mxGeometry relative="1" as="geometry" />
        </mxCell>
        <mxCell id="8r8kBKlHQmbd7kV8AP0j-40" value="Loan" style="whiteSpace=wrap;html=1;align=center;rounded=0;" parent="1" vertex="1">
          <mxGeometry x="-750" y="472.5" width="100" height="40" as="geometry" />
        </mxCell>
        <mxCell id="8r8kBKlHQmbd7kV8AP0j-41" style="edgeStyle=orthogonalEdgeStyle;shape=connector;rounded=0;orthogonalLoop=1;jettySize=auto;html=1;exitX=1;exitY=0.5;exitDx=0;exitDy=0;entryX=0;entryY=0.25;entryDx=0;entryDy=0;labelBackgroundColor=default;strokeColor=default;fontFamily=Helvetica;fontSize=11;fontColor=default;endArrow=none;endFill=0;" parent="1" source="8r8kBKlHQmbd7kV8AP0j-42" target="8r8kBKlHQmbd7kV8AP0j-40" edge="1">
          <mxGeometry relative="1" as="geometry" />
        </mxCell>
        <mxCell id="8r8kBKlHQmbd7kV8AP0j-42" value="loan ID" style="ellipse;whiteSpace=wrap;html=1;align=center;fontStyle=4;rounded=0;" parent="1" vertex="1">
          <mxGeometry x="-882.5" y="472.5" width="60" height="20" as="geometry" />
        </mxCell>
        <mxCell id="8r8kBKlHQmbd7kV8AP0j-43" style="edgeStyle=orthogonalEdgeStyle;shape=connector;rounded=0;orthogonalLoop=1;jettySize=auto;html=1;exitX=0.5;exitY=1;exitDx=0;exitDy=0;entryX=0;entryY=0;entryDx=0;entryDy=0;labelBackgroundColor=default;strokeColor=default;fontFamily=Helvetica;fontSize=11;fontColor=default;endArrow=none;endFill=0;" parent="1" source="8r8kBKlHQmbd7kV8AP0j-44" target="8r8kBKlHQmbd7kV8AP0j-40" edge="1">
          <mxGeometry relative="1" as="geometry">
            <Array as="points">
              <mxPoint x="-805" y="467.5" />
              <mxPoint x="-750" y="467.5" />
            </Array>
          </mxGeometry>
        </mxCell>
        <mxCell id="8r8kBKlHQmbd7kV8AP0j-44" value="type" style="ellipse;whiteSpace=wrap;html=1;align=center;rounded=0;" parent="1" vertex="1">
          <mxGeometry x="-830" y="442.5" width="50" height="20" as="geometry" />
        </mxCell>
        <mxCell id="8r8kBKlHQmbd7kV8AP0j-45" style="edgeStyle=orthogonalEdgeStyle;shape=connector;rounded=0;orthogonalLoop=1;jettySize=auto;html=1;exitX=0.5;exitY=1;exitDx=0;exitDy=0;entryX=0.25;entryY=0;entryDx=0;entryDy=0;labelBackgroundColor=default;strokeColor=default;fontFamily=Helvetica;fontSize=11;fontColor=default;endArrow=none;endFill=0;" parent="1" source="8r8kBKlHQmbd7kV8AP0j-46" target="8r8kBKlHQmbd7kV8AP0j-40" edge="1">
          <mxGeometry relative="1" as="geometry" />
        </mxCell>
        <mxCell id="8r8kBKlHQmbd7kV8AP0j-46" value="date" style="ellipse;whiteSpace=wrap;html=1;align=center;rounded=0;" parent="1" vertex="1">
          <mxGeometry x="-795" y="412.5" width="50" height="30" as="geometry" />
        </mxCell>
        <mxCell id="8r8kBKlHQmbd7kV8AP0j-50" value="total amount" style="ellipse;whiteSpace=wrap;html=1;align=center;rounded=0;" parent="1" vertex="1">
          <mxGeometry x="-900" y="542.5" width="70" height="30" as="geometry" />
        </mxCell>
        <mxCell id="8r8kBKlHQmbd7kV8AP0j-52" value="remaining amount" style="ellipse;whiteSpace=wrap;html=1;align=center;rounded=0;" parent="1" vertex="1">
          <mxGeometry x="-855" y="512.5" width="100" height="30" as="geometry" />
        </mxCell>
        <mxCell id="8r8kBKlHQmbd7kV8AP0j-78" style="edgeStyle=orthogonalEdgeStyle;shape=connector;rounded=0;orthogonalLoop=1;jettySize=auto;html=1;exitX=0.25;exitY=1;exitDx=0;exitDy=0;entryX=0;entryY=0;entryDx=0;entryDy=0;labelBackgroundColor=default;strokeColor=default;fontFamily=Helvetica;fontSize=11;fontColor=default;endArrow=none;endFill=0;" parent="1" source="8r8kBKlHQmbd7kV8AP0j-59" target="8r8kBKlHQmbd7kV8AP0j-69" edge="1">
          <mxGeometry relative="1" as="geometry" />
        </mxCell>
        <mxCell id="8r8kBKlHQmbd7kV8AP0j-238" style="edgeStyle=orthogonalEdgeStyle;shape=connector;rounded=0;orthogonalLoop=1;jettySize=auto;html=1;exitX=1;exitY=0.25;exitDx=0;exitDy=0;entryX=0;entryY=0.5;entryDx=0;entryDy=0;labelBackgroundColor=default;strokeColor=default;fontFamily=Helvetica;fontSize=11;fontColor=default;endArrow=none;endFill=0;" parent="1" source="8r8kBKlHQmbd7kV8AP0j-59" target="8r8kBKlHQmbd7kV8AP0j-60" edge="1">
          <mxGeometry relative="1" as="geometry" />
        </mxCell>
        <mxCell id="8r8kBKlHQmbd7kV8AP0j-239" style="edgeStyle=orthogonalEdgeStyle;shape=connector;rounded=0;orthogonalLoop=1;jettySize=auto;html=1;exitX=1;exitY=0.5;exitDx=0;exitDy=0;entryX=0;entryY=0.5;entryDx=0;entryDy=0;labelBackgroundColor=default;strokeColor=default;fontFamily=Helvetica;fontSize=11;fontColor=default;endArrow=none;endFill=0;" parent="1" source="8r8kBKlHQmbd7kV8AP0j-59" target="8r8kBKlHQmbd7kV8AP0j-63" edge="1">
          <mxGeometry relative="1" as="geometry" />
        </mxCell>
        <mxCell id="8r8kBKlHQmbd7kV8AP0j-59" value="Transfer" style="whiteSpace=wrap;html=1;align=center;fontFamily=Helvetica;fontSize=11;fontColor=default;" parent="1" vertex="1">
          <mxGeometry x="-232.5" y="217.5" width="70" height="40" as="geometry" />
        </mxCell>
        <mxCell id="8r8kBKlHQmbd7kV8AP0j-60" value="transfer ID" style="ellipse;whiteSpace=wrap;html=1;align=center;fontStyle=4;fontFamily=Helvetica;fontSize=11;fontColor=default;" parent="1" vertex="1">
          <mxGeometry x="-122.5" y="207.5" width="60" height="30" as="geometry" />
        </mxCell>
        <mxCell id="8r8kBKlHQmbd7kV8AP0j-67" style="edgeStyle=orthogonalEdgeStyle;shape=connector;rounded=0;orthogonalLoop=1;jettySize=auto;html=1;exitX=0;exitY=1;exitDx=0;exitDy=0;entryX=0.5;entryY=0;entryDx=0;entryDy=0;labelBackgroundColor=default;strokeColor=default;fontFamily=Helvetica;fontSize=11;fontColor=default;endArrow=none;endFill=0;" parent="1" source="8r8kBKlHQmbd7kV8AP0j-61" target="8r8kBKlHQmbd7kV8AP0j-59" edge="1">
          <mxGeometry relative="1" as="geometry" />
        </mxCell>
        <mxCell id="8r8kBKlHQmbd7kV8AP0j-61" value="Amount" style="ellipse;whiteSpace=wrap;html=1;align=center;fontFamily=Helvetica;fontSize=11;fontColor=default;" parent="1" vertex="1">
          <mxGeometry x="-192.5" y="165" width="40" height="30" as="geometry" />
        </mxCell>
        <mxCell id="8r8kBKlHQmbd7kV8AP0j-63" value="reason" style="ellipse;whiteSpace=wrap;html=1;align=center;fontFamily=Helvetica;fontSize=11;fontColor=default;" parent="1" vertex="1">
          <mxGeometry x="-133.75" y="247.5" width="40" height="30" as="geometry" />
        </mxCell>
        <mxCell id="8r8kBKlHQmbd7kV8AP0j-79" style="edgeStyle=orthogonalEdgeStyle;shape=connector;rounded=0;orthogonalLoop=1;jettySize=auto;html=1;exitX=1;exitY=0;exitDx=0;exitDy=0;entryX=0.675;entryY=1.003;entryDx=0;entryDy=0;entryPerimeter=0;labelBackgroundColor=default;strokeColor=default;fontFamily=Helvetica;fontSize=11;fontColor=default;endArrow=none;endFill=0;" parent="1" source="8r8kBKlHQmbd7kV8AP0j-69" target="8r8kBKlHQmbd7kV8AP0j-59" edge="1">
          <mxGeometry relative="1" as="geometry" />
        </mxCell>
        <mxCell id="8r8kBKlHQmbd7kV8AP0j-80" style="edgeStyle=orthogonalEdgeStyle;shape=connector;rounded=0;orthogonalLoop=1;jettySize=auto;html=1;exitX=0;exitY=0.5;exitDx=0;exitDy=0;labelBackgroundColor=default;strokeColor=default;fontFamily=Helvetica;fontSize=11;fontColor=default;endArrow=none;endFill=0;" parent="1" source="8r8kBKlHQmbd7kV8AP0j-69" target="8r8kBKlHQmbd7kV8AP0j-73" edge="1">
          <mxGeometry relative="1" as="geometry" />
        </mxCell>
        <mxCell id="8r8kBKlHQmbd7kV8AP0j-81" style="edgeStyle=orthogonalEdgeStyle;shape=connector;rounded=0;orthogonalLoop=1;jettySize=auto;html=1;exitX=0.5;exitY=1;exitDx=0;exitDy=0;labelBackgroundColor=default;strokeColor=default;fontFamily=Helvetica;fontSize=11;fontColor=default;endArrow=none;endFill=0;" parent="1" source="8r8kBKlHQmbd7kV8AP0j-69" target="8r8kBKlHQmbd7kV8AP0j-72" edge="1">
          <mxGeometry relative="1" as="geometry" />
        </mxCell>
        <mxCell id="8r8kBKlHQmbd7kV8AP0j-82" style="edgeStyle=orthogonalEdgeStyle;shape=connector;rounded=0;orthogonalLoop=1;jettySize=auto;html=1;exitX=1;exitY=0.5;exitDx=0;exitDy=0;entryX=0.5;entryY=0;entryDx=0;entryDy=0;labelBackgroundColor=default;strokeColor=default;fontFamily=Helvetica;fontSize=11;fontColor=default;endArrow=none;endFill=0;" parent="1" source="8r8kBKlHQmbd7kV8AP0j-69" target="8r8kBKlHQmbd7kV8AP0j-71" edge="1">
          <mxGeometry relative="1" as="geometry" />
        </mxCell>
        <mxCell id="8r8kBKlHQmbd7kV8AP0j-69" value="d" style="ellipse;whiteSpace=wrap;html=1;aspect=fixed;fontFamily=Helvetica;fontSize=11;fontColor=default;" parent="1" vertex="1">
          <mxGeometry x="-215" y="277.5" width="35" height="35" as="geometry" />
        </mxCell>
        <mxCell id="8r8kBKlHQmbd7kV8AP0j-341" style="edgeStyle=orthogonalEdgeStyle;shape=connector;rounded=0;orthogonalLoop=1;jettySize=auto;html=1;exitX=0.75;exitY=1;exitDx=0;exitDy=0;entryX=1;entryY=0;entryDx=0;entryDy=0;labelBackgroundColor=default;strokeColor=default;fontFamily=Helvetica;fontSize=11;fontColor=default;endArrow=none;endFill=0;" parent="1" source="8r8kBKlHQmbd7kV8AP0j-71" target="8r8kBKlHQmbd7kV8AP0j-338" edge="1">
          <mxGeometry relative="1" as="geometry" />
        </mxCell>
        <mxCell id="8r8kBKlHQmbd7kV8AP0j-71" value="International" style="whiteSpace=wrap;html=1;align=center;fontFamily=Helvetica;fontSize=11;fontColor=default;" parent="1" vertex="1">
          <mxGeometry x="-102.5" y="327.5" width="100" height="40" as="geometry" />
        </mxCell>
        <mxCell id="8r8kBKlHQmbd7kV8AP0j-332" style="edgeStyle=orthogonalEdgeStyle;shape=connector;rounded=0;orthogonalLoop=1;jettySize=auto;html=1;exitX=0.75;exitY=1;exitDx=0;exitDy=0;entryX=1;entryY=0;entryDx=0;entryDy=0;labelBackgroundColor=default;strokeColor=default;fontFamily=Helvetica;fontSize=11;fontColor=default;endArrow=none;endFill=0;" parent="1" source="8r8kBKlHQmbd7kV8AP0j-72" target="8r8kBKlHQmbd7kV8AP0j-331" edge="1">
          <mxGeometry relative="1" as="geometry" />
        </mxCell>
        <mxCell id="8r8kBKlHQmbd7kV8AP0j-333" style="edgeStyle=orthogonalEdgeStyle;shape=connector;rounded=0;orthogonalLoop=1;jettySize=auto;html=1;exitX=0.5;exitY=1;exitDx=0;exitDy=0;entryX=0.5;entryY=0;entryDx=0;entryDy=0;labelBackgroundColor=default;strokeColor=default;fontFamily=Helvetica;fontSize=11;fontColor=default;endArrow=none;endFill=0;" parent="1" source="8r8kBKlHQmbd7kV8AP0j-72" target="8r8kBKlHQmbd7kV8AP0j-329" edge="1">
          <mxGeometry relative="1" as="geometry" />
        </mxCell>
        <mxCell id="8r8kBKlHQmbd7kV8AP0j-72" value="Domestic" style="whiteSpace=wrap;html=1;align=center;fontFamily=Helvetica;fontSize=11;fontColor=default;" parent="1" vertex="1">
          <mxGeometry x="-222.5" y="327.5" width="100" height="40" as="geometry" />
        </mxCell>
        <mxCell id="8r8kBKlHQmbd7kV8AP0j-73" value="Internal" style="whiteSpace=wrap;html=1;align=center;fontFamily=Helvetica;fontSize=11;fontColor=default;" parent="1" vertex="1">
          <mxGeometry x="-342.5" y="330" width="100" height="40" as="geometry" />
        </mxCell>
        <mxCell id="8r8kBKlHQmbd7kV8AP0j-241" style="edgeStyle=orthogonalEdgeStyle;shape=connector;rounded=0;orthogonalLoop=1;jettySize=auto;html=1;exitX=0.75;exitY=1;exitDx=0;exitDy=0;labelBackgroundColor=default;strokeColor=default;fontFamily=Helvetica;fontSize=11;fontColor=default;endArrow=none;endFill=0;startArrow=ERmandOne;startFill=0;entryX=0;entryY=0;entryDx=0;entryDy=0;" parent="1" source="8r8kBKlHQmbd7kV8AP0j-83" target="8r8kBKlHQmbd7kV8AP0j-218" edge="1">
          <mxGeometry relative="1" as="geometry">
            <mxPoint x="-270" y="96" as="targetPoint" />
            <Array as="points">
              <mxPoint x="-257" y="96" />
              <mxPoint x="-255" y="96" />
            </Array>
          </mxGeometry>
        </mxCell>
        <mxCell id="8r8kBKlHQmbd7kV8AP0j-242" style="edgeStyle=orthogonalEdgeStyle;shape=connector;rounded=0;orthogonalLoop=1;jettySize=auto;html=1;exitX=1;exitY=0.75;exitDx=0;exitDy=0;entryX=0.779;entryY=0.376;entryDx=0;entryDy=0;entryPerimeter=0;labelBackgroundColor=default;strokeColor=default;fontFamily=Helvetica;fontSize=11;fontColor=default;endArrow=none;endFill=0;startArrow=ERmandOne;startFill=0;" parent="1" source="8r8kBKlHQmbd7kV8AP0j-83" target="8r8kBKlHQmbd7kV8AP0j-218" edge="1">
          <mxGeometry relative="1" as="geometry" />
        </mxCell>
        <mxCell id="8r8kBKlHQmbd7kV8AP0j-83" value="Bank Account" style="whiteSpace=wrap;html=1;align=center;rounded=0;" parent="1" vertex="1">
          <mxGeometry x="-332.5" y="20" width="100" height="40" as="geometry" />
        </mxCell>
        <mxCell id="8r8kBKlHQmbd7kV8AP0j-84" style="edgeStyle=orthogonalEdgeStyle;shape=connector;rounded=0;orthogonalLoop=1;jettySize=auto;html=1;exitX=0.5;exitY=1;exitDx=0;exitDy=0;entryX=0.5;entryY=0;entryDx=0;entryDy=0;labelBackgroundColor=default;strokeColor=default;fontFamily=Helvetica;fontSize=11;fontColor=default;endArrow=none;endFill=0;" parent="1" source="8r8kBKlHQmbd7kV8AP0j-85" target="8r8kBKlHQmbd7kV8AP0j-83" edge="1">
          <mxGeometry relative="1" as="geometry" />
        </mxCell>
        <mxCell id="8r8kBKlHQmbd7kV8AP0j-85" value="account number" style="ellipse;whiteSpace=wrap;html=1;align=center;fontStyle=4;rounded=0;" parent="1" vertex="1">
          <mxGeometry x="-295" y="-45" width="70" height="40" as="geometry" />
        </mxCell>
        <mxCell id="8r8kBKlHQmbd7kV8AP0j-86" style="edgeStyle=orthogonalEdgeStyle;shape=connector;rounded=0;orthogonalLoop=1;jettySize=auto;html=1;exitX=1;exitY=0.5;exitDx=0;exitDy=0;entryX=0;entryY=0;entryDx=0;entryDy=0;labelBackgroundColor=default;strokeColor=default;fontFamily=Helvetica;fontSize=11;fontColor=default;endArrow=none;endFill=0;" parent="1" source="8r8kBKlHQmbd7kV8AP0j-87" target="8r8kBKlHQmbd7kV8AP0j-83" edge="1">
          <mxGeometry relative="1" as="geometry" />
        </mxCell>
        <mxCell id="8r8kBKlHQmbd7kV8AP0j-87" value="type" style="ellipse;whiteSpace=wrap;html=1;align=center;rounded=0;" parent="1" vertex="1">
          <mxGeometry x="-370" y="-30" width="37.5" height="30" as="geometry" />
        </mxCell>
        <mxCell id="8r8kBKlHQmbd7kV8AP0j-88" style="edgeStyle=orthogonalEdgeStyle;shape=connector;rounded=0;orthogonalLoop=1;jettySize=auto;html=1;exitX=0.5;exitY=1;exitDx=0;exitDy=0;entryX=0.25;entryY=0;entryDx=0;entryDy=0;labelBackgroundColor=default;strokeColor=default;fontFamily=Helvetica;fontSize=11;fontColor=default;endArrow=none;endFill=0;" parent="1" source="8r8kBKlHQmbd7kV8AP0j-89" target="8r8kBKlHQmbd7kV8AP0j-83" edge="1">
          <mxGeometry relative="1" as="geometry" />
        </mxCell>
        <mxCell id="8r8kBKlHQmbd7kV8AP0j-89" value="IBAN" style="ellipse;whiteSpace=wrap;html=1;align=center;rounded=0;" parent="1" vertex="1">
          <mxGeometry x="-345" y="-50" width="50" height="20" as="geometry" />
        </mxCell>
        <mxCell id="8r8kBKlHQmbd7kV8AP0j-90" style="edgeStyle=orthogonalEdgeStyle;shape=connector;rounded=0;orthogonalLoop=1;jettySize=auto;html=1;exitX=0;exitY=0.5;exitDx=0;exitDy=0;entryX=0.75;entryY=0;entryDx=0;entryDy=0;labelBackgroundColor=default;strokeColor=default;fontFamily=Helvetica;fontSize=11;fontColor=default;endArrow=none;endFill=0;" parent="1" source="8r8kBKlHQmbd7kV8AP0j-91" target="8r8kBKlHQmbd7kV8AP0j-83" edge="1">
          <mxGeometry relative="1" as="geometry">
            <Array as="points">
              <mxPoint x="-220" />
              <mxPoint x="-257" />
            </Array>
          </mxGeometry>
        </mxCell>
        <mxCell id="8r8kBKlHQmbd7kV8AP0j-91" value="balance" style="ellipse;whiteSpace=wrap;html=1;align=center;rounded=0;" parent="1" vertex="1">
          <mxGeometry x="-220" y="-35" width="70" height="20" as="geometry" />
        </mxCell>
        <mxCell id="8r8kBKlHQmbd7kV8AP0j-92" style="edgeStyle=orthogonalEdgeStyle;shape=connector;rounded=0;orthogonalLoop=1;jettySize=auto;html=1;exitX=0;exitY=0.5;exitDx=0;exitDy=0;entryX=1;entryY=0;entryDx=0;entryDy=0;labelBackgroundColor=default;strokeColor=default;fontFamily=Helvetica;fontSize=11;fontColor=default;endArrow=none;endFill=0;" parent="1" source="8r8kBKlHQmbd7kV8AP0j-93" target="8r8kBKlHQmbd7kV8AP0j-83" edge="1">
          <mxGeometry relative="1" as="geometry" />
        </mxCell>
        <mxCell id="8r8kBKlHQmbd7kV8AP0j-93" value="blocked" style="ellipse;whiteSpace=wrap;html=1;align=center;rounded=0;" parent="1" vertex="1">
          <mxGeometry x="-210" y="-5" width="60" height="25" as="geometry" />
        </mxCell>
        <mxCell id="8r8kBKlHQmbd7kV8AP0j-94" style="edgeStyle=orthogonalEdgeStyle;shape=connector;rounded=0;orthogonalLoop=1;jettySize=auto;html=1;exitX=1;exitY=0;exitDx=0;exitDy=0;entryX=0;entryY=1;entryDx=0;entryDy=0;labelBackgroundColor=default;strokeColor=default;fontFamily=Helvetica;fontSize=11;fontColor=default;endArrow=none;endFill=0;" parent="1" source="8r8kBKlHQmbd7kV8AP0j-96" target="8r8kBKlHQmbd7kV8AP0j-108" edge="1">
          <mxGeometry relative="1" as="geometry">
            <Array as="points">
              <mxPoint x="-427.5" y="450" />
              <mxPoint x="-378.5" y="450" />
            </Array>
          </mxGeometry>
        </mxCell>
        <mxCell id="8r8kBKlHQmbd7kV8AP0j-96" value="Bill" style="whiteSpace=wrap;html=1;align=center;fontFamily=Helvetica;fontSize=11;fontColor=default;" parent="1" vertex="1">
          <mxGeometry x="-527.5" y="490" width="100" height="40" as="geometry" />
        </mxCell>
        <mxCell id="8r8kBKlHQmbd7kV8AP0j-97" style="edgeStyle=orthogonalEdgeStyle;shape=connector;rounded=0;orthogonalLoop=1;jettySize=auto;html=1;exitX=0;exitY=1;exitDx=0;exitDy=0;entryX=0.25;entryY=0;entryDx=0;entryDy=0;labelBackgroundColor=default;strokeColor=default;fontFamily=Helvetica;fontSize=11;fontColor=default;endArrow=none;endFill=0;" parent="1" source="8r8kBKlHQmbd7kV8AP0j-98" target="8r8kBKlHQmbd7kV8AP0j-96" edge="1">
          <mxGeometry relative="1" as="geometry" />
        </mxCell>
        <mxCell id="8r8kBKlHQmbd7kV8AP0j-98" value="Bill ID" style="ellipse;whiteSpace=wrap;html=1;align=center;fontStyle=4;fontFamily=Helvetica;fontSize=11;fontColor=default;" parent="1" vertex="1">
          <mxGeometry x="-517.5" y="407.5" width="40" height="30" as="geometry" />
        </mxCell>
        <mxCell id="8r8kBKlHQmbd7kV8AP0j-236" style="edgeStyle=orthogonalEdgeStyle;shape=connector;rounded=0;orthogonalLoop=1;jettySize=auto;html=1;exitX=1;exitY=1;exitDx=0;exitDy=0;entryX=0;entryY=0.25;entryDx=0;entryDy=0;labelBackgroundColor=default;strokeColor=default;fontFamily=Helvetica;fontSize=11;fontColor=default;endArrow=none;endFill=0;" parent="1" source="8r8kBKlHQmbd7kV8AP0j-101" target="8r8kBKlHQmbd7kV8AP0j-96" edge="1">
          <mxGeometry relative="1" as="geometry">
            <Array as="points">
              <mxPoint x="-557" y="500" />
            </Array>
          </mxGeometry>
        </mxCell>
        <mxCell id="8r8kBKlHQmbd7kV8AP0j-101" value="total Amount" style="ellipse;whiteSpace=wrap;html=1;align=center;fontFamily=Helvetica;fontSize=11;fontColor=default;" parent="1" vertex="1">
          <mxGeometry x="-600" y="450" width="50" height="35" as="geometry" />
        </mxCell>
        <mxCell id="8r8kBKlHQmbd7kV8AP0j-102" style="edgeStyle=orthogonalEdgeStyle;shape=connector;rounded=0;orthogonalLoop=1;jettySize=auto;html=1;exitX=0;exitY=0.5;exitDx=0;exitDy=0;entryX=1;entryY=0.25;entryDx=0;entryDy=0;labelBackgroundColor=default;strokeColor=default;fontFamily=Helvetica;fontSize=11;fontColor=default;endArrow=none;endFill=0;" parent="1" source="8r8kBKlHQmbd7kV8AP0j-103" target="8r8kBKlHQmbd7kV8AP0j-96" edge="1">
          <mxGeometry relative="1" as="geometry" />
        </mxCell>
        <mxCell id="8r8kBKlHQmbd7kV8AP0j-103" value="date" style="ellipse;whiteSpace=wrap;html=1;align=center;fontFamily=Helvetica;fontSize=11;fontColor=default;" parent="1" vertex="1">
          <mxGeometry x="-367.5" y="450" width="30" height="30" as="geometry" />
        </mxCell>
        <mxCell id="8r8kBKlHQmbd7kV8AP0j-104" style="edgeStyle=orthogonalEdgeStyle;shape=connector;rounded=0;orthogonalLoop=1;jettySize=auto;html=1;exitX=0;exitY=0.5;exitDx=0;exitDy=0;entryX=1;entryY=0.5;entryDx=0;entryDy=0;labelBackgroundColor=default;strokeColor=default;fontFamily=Helvetica;fontSize=11;fontColor=default;endArrow=none;endFill=0;" parent="1" source="8r8kBKlHQmbd7kV8AP0j-105" target="8r8kBKlHQmbd7kV8AP0j-96" edge="1">
          <mxGeometry relative="1" as="geometry" />
        </mxCell>
        <mxCell id="8r8kBKlHQmbd7kV8AP0j-105" value="deadline" style="ellipse;whiteSpace=wrap;html=1;align=center;fontFamily=Helvetica;fontSize=11;fontColor=default;" parent="1" vertex="1">
          <mxGeometry x="-377.5" y="495" width="50" height="30" as="geometry" />
        </mxCell>
        <mxCell id="8r8kBKlHQmbd7kV8AP0j-106" style="edgeStyle=orthogonalEdgeStyle;shape=connector;rounded=0;orthogonalLoop=1;jettySize=auto;html=1;exitX=0.5;exitY=1;exitDx=0;exitDy=0;entryX=0;entryY=0;entryDx=0;entryDy=0;labelBackgroundColor=default;strokeColor=default;fontFamily=Helvetica;fontSize=11;fontColor=default;endArrow=none;endFill=0;" parent="1" source="8r8kBKlHQmbd7kV8AP0j-107" target="8r8kBKlHQmbd7kV8AP0j-96" edge="1">
          <mxGeometry relative="1" as="geometry" />
        </mxCell>
        <mxCell id="8r8kBKlHQmbd7kV8AP0j-107" value="type" style="ellipse;whiteSpace=wrap;html=1;align=center;fontStyle=4;fontFamily=Helvetica;fontSize=11;fontColor=default;" parent="1" vertex="1">
          <mxGeometry x="-557.5" y="425" width="30" height="25" as="geometry" />
        </mxCell>
        <mxCell id="8r8kBKlHQmbd7kV8AP0j-108" value="destination" style="ellipse;whiteSpace=wrap;html=1;align=center;fontFamily=Helvetica;fontSize=11;fontColor=default;" parent="1" vertex="1">
          <mxGeometry x="-387.5" y="412.5" width="60" height="30" as="geometry" />
        </mxCell>
        <mxCell id="8r8kBKlHQmbd7kV8AP0j-109" style="edgeStyle=orthogonalEdgeStyle;shape=connector;rounded=0;orthogonalLoop=1;jettySize=auto;html=1;exitX=0;exitY=0;exitDx=0;exitDy=0;entryX=1;entryY=0.75;entryDx=0;entryDy=0;labelBackgroundColor=default;strokeColor=default;fontFamily=Helvetica;fontSize=11;fontColor=default;endArrow=none;endFill=0;" parent="1" source="8r8kBKlHQmbd7kV8AP0j-110" target="8r8kBKlHQmbd7kV8AP0j-96" edge="1">
          <mxGeometry relative="1" as="geometry" />
        </mxCell>
        <mxCell id="8r8kBKlHQmbd7kV8AP0j-110" value="paid amount" style="ellipse;whiteSpace=wrap;html=1;align=center;fontFamily=Helvetica;fontSize=11;fontColor=default;" parent="1" vertex="1">
          <mxGeometry x="-377.5" y="535" width="60" height="30" as="geometry" />
        </mxCell>
        <mxCell id="8r8kBKlHQmbd7kV8AP0j-111" style="edgeStyle=orthogonalEdgeStyle;shape=connector;rounded=0;orthogonalLoop=1;jettySize=auto;html=1;exitX=0.5;exitY=0;exitDx=0;exitDy=0;entryX=1;entryY=1;entryDx=0;entryDy=0;labelBackgroundColor=default;strokeColor=default;fontFamily=Helvetica;fontSize=11;fontColor=default;endArrow=none;endFill=0;" parent="1" source="8r8kBKlHQmbd7kV8AP0j-112" target="8r8kBKlHQmbd7kV8AP0j-96" edge="1">
          <mxGeometry relative="1" as="geometry" />
        </mxCell>
        <mxCell id="8r8kBKlHQmbd7kV8AP0j-112" value="outstanding amount" style="ellipse;whiteSpace=wrap;html=1;align=center;dashed=1;fontFamily=Helvetica;fontSize=11;fontColor=default;" parent="1" vertex="1">
          <mxGeometry x="-487.5" y="550" width="80" height="40" as="geometry" />
        </mxCell>
        <mxCell id="8r8kBKlHQmbd7kV8AP0j-114" value="Transaction" style="whiteSpace=wrap;html=1;align=center;rounded=0;" parent="1" vertex="1">
          <mxGeometry x="-837.5" y="50" width="100" height="40" as="geometry" />
        </mxCell>
        <mxCell id="8r8kBKlHQmbd7kV8AP0j-115" style="edgeStyle=orthogonalEdgeStyle;shape=connector;rounded=0;orthogonalLoop=1;jettySize=auto;html=1;exitX=1;exitY=0.5;exitDx=0;exitDy=0;entryX=0;entryY=0;entryDx=0;entryDy=0;labelBackgroundColor=default;strokeColor=default;fontFamily=Helvetica;fontSize=11;fontColor=default;endArrow=none;endFill=0;" parent="1" source="8r8kBKlHQmbd7kV8AP0j-116" target="8r8kBKlHQmbd7kV8AP0j-114" edge="1">
          <mxGeometry relative="1" as="geometry" />
        </mxCell>
        <mxCell id="8r8kBKlHQmbd7kV8AP0j-116" value="transaction ID" style="ellipse;whiteSpace=wrap;html=1;align=center;fontStyle=4;fontFamily=Helvetica;fontSize=11;fontColor=default;" parent="1" vertex="1">
          <mxGeometry x="-917.5" width="80" height="40" as="geometry" />
        </mxCell>
        <mxCell id="8r8kBKlHQmbd7kV8AP0j-117" style="edgeStyle=orthogonalEdgeStyle;shape=connector;rounded=0;orthogonalLoop=1;jettySize=auto;html=1;exitX=0;exitY=1;exitDx=0;exitDy=0;entryX=0.25;entryY=0;entryDx=0;entryDy=0;labelBackgroundColor=default;strokeColor=default;fontFamily=Helvetica;fontSize=11;fontColor=default;endArrow=none;endFill=0;" parent="1" source="8r8kBKlHQmbd7kV8AP0j-118" target="8r8kBKlHQmbd7kV8AP0j-114" edge="1">
          <mxGeometry relative="1" as="geometry" />
        </mxCell>
        <mxCell id="8r8kBKlHQmbd7kV8AP0j-118" value="Date" style="ellipse;whiteSpace=wrap;html=1;align=center;fontFamily=Helvetica;fontSize=11;fontColor=default;" parent="1" vertex="1">
          <mxGeometry x="-837.5" y="-20" width="40" height="30" as="geometry" />
        </mxCell>
        <mxCell id="8r8kBKlHQmbd7kV8AP0j-119" style="edgeStyle=orthogonalEdgeStyle;shape=connector;rounded=0;orthogonalLoop=1;jettySize=auto;html=1;exitX=0;exitY=1;exitDx=0;exitDy=0;entryX=0.5;entryY=0;entryDx=0;entryDy=0;labelBackgroundColor=default;fontFamily=Helvetica;fontSize=11;fontColor=default;endArrow=none;endFill=0;" parent="1" source="8r8kBKlHQmbd7kV8AP0j-120" target="8r8kBKlHQmbd7kV8AP0j-114" edge="1">
          <mxGeometry relative="1" as="geometry" />
        </mxCell>
        <mxCell id="8r8kBKlHQmbd7kV8AP0j-120" value="Amount" style="ellipse;whiteSpace=wrap;html=1;align=center;fontFamily=Helvetica;fontSize=11;fontColor=default;" parent="1" vertex="1">
          <mxGeometry x="-787.5" y="-27.5" width="50" height="30" as="geometry" />
        </mxCell>
        <mxCell id="8r8kBKlHQmbd7kV8AP0j-121" style="edgeStyle=orthogonalEdgeStyle;shape=connector;rounded=0;orthogonalLoop=1;jettySize=auto;html=1;exitX=0;exitY=0.5;exitDx=0;exitDy=0;entryX=0.75;entryY=0;entryDx=0;entryDy=0;labelBackgroundColor=default;strokeColor=default;fontFamily=Helvetica;fontSize=11;fontColor=default;endArrow=none;endFill=0;" parent="1" source="8r8kBKlHQmbd7kV8AP0j-122" target="8r8kBKlHQmbd7kV8AP0j-114" edge="1">
          <mxGeometry relative="1" as="geometry">
            <Array as="points">
              <mxPoint x="-762.5" y="32.75" />
            </Array>
          </mxGeometry>
        </mxCell>
        <mxCell id="8r8kBKlHQmbd7kV8AP0j-122" value="type" style="ellipse;whiteSpace=wrap;html=1;align=center;fontFamily=Helvetica;fontSize=11;fontColor=default;" parent="1" vertex="1">
          <mxGeometry x="-775" y="10" width="40" height="20" as="geometry" />
        </mxCell>
        <mxCell id="8r8kBKlHQmbd7kV8AP0j-276" style="edgeStyle=orthogonalEdgeStyle;shape=connector;rounded=0;orthogonalLoop=1;jettySize=auto;html=1;exitX=0.25;exitY=1;exitDx=0;exitDy=0;entryX=0;entryY=0;entryDx=0;entryDy=0;labelBackgroundColor=default;strokeColor=default;fontFamily=Helvetica;fontSize=11;fontColor=default;endArrow=none;endFill=0;startArrow=ERzeroToMany;startFill=0;" parent="1" source="8r8kBKlHQmbd7kV8AP0j-123" target="8r8kBKlHQmbd7kV8AP0j-132" edge="1">
          <mxGeometry relative="1" as="geometry">
            <Array as="points">
              <mxPoint x="-724" y="-277" />
            </Array>
          </mxGeometry>
        </mxCell>
        <mxCell id="8r8kBKlHQmbd7kV8AP0j-123" value="Reminder" style="whiteSpace=wrap;html=1;align=center;fontFamily=Helvetica;fontSize=11;fontColor=default;" parent="1" vertex="1">
          <mxGeometry x="-749.35" y="-342.5" width="100" height="40" as="geometry" />
        </mxCell>
        <mxCell id="8r8kBKlHQmbd7kV8AP0j-160" style="edgeStyle=orthogonalEdgeStyle;shape=connector;rounded=0;orthogonalLoop=1;jettySize=auto;html=1;exitX=0.5;exitY=1;exitDx=0;exitDy=0;entryX=0.25;entryY=0;entryDx=0;entryDy=0;labelBackgroundColor=default;strokeColor=default;fontFamily=Helvetica;fontSize=11;fontColor=default;endArrow=none;endFill=0;" parent="1" source="8r8kBKlHQmbd7kV8AP0j-124" target="8r8kBKlHQmbd7kV8AP0j-123" edge="1">
          <mxGeometry relative="1" as="geometry" />
        </mxCell>
        <mxCell id="8r8kBKlHQmbd7kV8AP0j-124" value="Reminder ID" style="ellipse;whiteSpace=wrap;html=1;align=center;fontStyle=4;fontFamily=Helvetica;fontSize=11;fontColor=default;" parent="1" vertex="1">
          <mxGeometry x="-746.85" y="-412.5" width="72.5" height="30" as="geometry" />
        </mxCell>
        <mxCell id="8r8kBKlHQmbd7kV8AP0j-159" style="edgeStyle=orthogonalEdgeStyle;shape=connector;rounded=0;orthogonalLoop=1;jettySize=auto;html=1;exitX=0.5;exitY=1;exitDx=0;exitDy=0;entryX=0;entryY=0;entryDx=0;entryDy=0;labelBackgroundColor=default;strokeColor=default;fontFamily=Helvetica;fontSize=11;fontColor=default;endArrow=none;endFill=0;" parent="1" source="8r8kBKlHQmbd7kV8AP0j-125" target="8r8kBKlHQmbd7kV8AP0j-123" edge="1">
          <mxGeometry relative="1" as="geometry" />
        </mxCell>
        <mxCell id="8r8kBKlHQmbd7kV8AP0j-125" value="Message" style="ellipse;whiteSpace=wrap;html=1;align=center;fontFamily=Helvetica;fontSize=11;fontColor=default;" parent="1" vertex="1">
          <mxGeometry x="-781.85" y="-387.5" width="47.5" height="30" as="geometry" />
        </mxCell>
        <mxCell id="8r8kBKlHQmbd7kV8AP0j-161" style="edgeStyle=orthogonalEdgeStyle;shape=connector;rounded=0;orthogonalLoop=1;jettySize=auto;html=1;exitX=0;exitY=0.5;exitDx=0;exitDy=0;entryX=0.5;entryY=0;entryDx=0;entryDy=0;labelBackgroundColor=default;strokeColor=default;fontFamily=Helvetica;fontSize=11;fontColor=default;endArrow=none;endFill=0;" parent="1" source="8r8kBKlHQmbd7kV8AP0j-126" target="8r8kBKlHQmbd7kV8AP0j-123" edge="1">
          <mxGeometry relative="1" as="geometry" />
        </mxCell>
        <mxCell id="8r8kBKlHQmbd7kV8AP0j-126" value="Category" style="ellipse;whiteSpace=wrap;html=1;align=center;fontFamily=Helvetica;fontSize=11;fontColor=default;" parent="1" vertex="1">
          <mxGeometry x="-689.35" y="-387.5" width="50" height="30" as="geometry" />
        </mxCell>
        <mxCell id="8r8kBKlHQmbd7kV8AP0j-127" value="Notification" style="whiteSpace=wrap;html=1;align=center;fontFamily=Helvetica;fontSize=11;fontColor=default;" parent="1" vertex="1">
          <mxGeometry x="-1172.5" y="-290" width="100" height="40" as="geometry" />
        </mxCell>
        <mxCell id="8r8kBKlHQmbd7kV8AP0j-163" style="edgeStyle=orthogonalEdgeStyle;shape=connector;rounded=0;orthogonalLoop=1;jettySize=auto;html=1;exitX=0;exitY=1;exitDx=0;exitDy=0;entryX=0.25;entryY=0;entryDx=0;entryDy=0;labelBackgroundColor=default;strokeColor=default;fontFamily=Helvetica;fontSize=11;fontColor=default;endArrow=none;endFill=0;" parent="1" source="8r8kBKlHQmbd7kV8AP0j-128" target="8r8kBKlHQmbd7kV8AP0j-127" edge="1">
          <mxGeometry relative="1" as="geometry" />
        </mxCell>
        <mxCell id="8r8kBKlHQmbd7kV8AP0j-128" value="Notificaiton ID" style="ellipse;whiteSpace=wrap;html=1;align=center;fontStyle=4;fontFamily=Helvetica;fontSize=11;fontColor=default;" parent="1" vertex="1">
          <mxGeometry x="-1166.25" y="-345" width="70" height="30" as="geometry" />
        </mxCell>
        <mxCell id="8r8kBKlHQmbd7kV8AP0j-162" style="edgeStyle=orthogonalEdgeStyle;shape=connector;rounded=0;orthogonalLoop=1;jettySize=auto;html=1;exitX=0.5;exitY=1;exitDx=0;exitDy=0;entryX=0;entryY=0;entryDx=0;entryDy=0;labelBackgroundColor=default;strokeColor=default;fontFamily=Helvetica;fontSize=11;fontColor=default;endArrow=none;endFill=0;" parent="1" source="8r8kBKlHQmbd7kV8AP0j-129" target="8r8kBKlHQmbd7kV8AP0j-127" edge="1">
          <mxGeometry relative="1" as="geometry" />
        </mxCell>
        <mxCell id="8r8kBKlHQmbd7kV8AP0j-129" value="Type" style="ellipse;whiteSpace=wrap;html=1;align=center;fontFamily=Helvetica;fontSize=11;fontColor=default;" parent="1" vertex="1">
          <mxGeometry x="-1211.25" y="-330" width="45" height="30" as="geometry" />
        </mxCell>
        <mxCell id="8r8kBKlHQmbd7kV8AP0j-164" style="edgeStyle=orthogonalEdgeStyle;shape=connector;rounded=0;orthogonalLoop=1;jettySize=auto;html=1;exitX=0;exitY=0.5;exitDx=0;exitDy=0;entryX=0.5;entryY=0;entryDx=0;entryDy=0;labelBackgroundColor=default;strokeColor=default;fontFamily=Helvetica;fontSize=11;fontColor=default;endArrow=none;endFill=0;" parent="1" source="8r8kBKlHQmbd7kV8AP0j-130" target="8r8kBKlHQmbd7kV8AP0j-127" edge="1">
          <mxGeometry relative="1" as="geometry" />
        </mxCell>
        <mxCell id="8r8kBKlHQmbd7kV8AP0j-130" value="Message" style="ellipse;whiteSpace=wrap;html=1;align=center;fontFamily=Helvetica;fontSize=11;fontColor=default;" parent="1" vertex="1">
          <mxGeometry x="-1107.5" y="-320" width="52.5" height="20" as="geometry" />
        </mxCell>
        <mxCell id="8r8kBKlHQmbd7kV8AP0j-132" value="set/receive" style="shape=rhombus;perimeter=rhombusPerimeter;whiteSpace=wrap;html=1;align=center;fontFamily=Helvetica;fontSize=11;fontColor=default;" parent="1" vertex="1">
          <mxGeometry x="-745" y="-290" width="67.5" height="50" as="geometry" />
        </mxCell>
        <mxCell id="8r8kBKlHQmbd7kV8AP0j-275" style="edgeStyle=orthogonalEdgeStyle;shape=connector;rounded=0;orthogonalLoop=1;jettySize=auto;html=1;exitX=1;exitY=0.5;exitDx=0;exitDy=0;entryX=0;entryY=0.5;entryDx=0;entryDy=0;labelBackgroundColor=default;strokeColor=default;fontFamily=Helvetica;fontSize=11;fontColor=default;endArrow=none;endFill=0;startArrow=ERzeroToMany;startFill=0;" parent="1" source="8r8kBKlHQmbd7kV8AP0j-133" target="8r8kBKlHQmbd7kV8AP0j-271" edge="1">
          <mxGeometry relative="1" as="geometry" />
        </mxCell>
        <mxCell id="8r8kBKlHQmbd7kV8AP0j-133" value="Report" style="whiteSpace=wrap;html=1;align=center;fontFamily=Helvetica;fontSize=11;fontColor=default;" parent="1" vertex="1">
          <mxGeometry x="-835" y="-580" width="100" height="40" as="geometry" />
        </mxCell>
        <mxCell id="8r8kBKlHQmbd7kV8AP0j-165" style="edgeStyle=orthogonalEdgeStyle;shape=connector;rounded=0;orthogonalLoop=1;jettySize=auto;html=1;exitX=0.5;exitY=1;exitDx=0;exitDy=0;entryX=0.5;entryY=0;entryDx=0;entryDy=0;labelBackgroundColor=default;strokeColor=default;fontFamily=Helvetica;fontSize=11;fontColor=default;endArrow=none;endFill=0;" parent="1" source="8r8kBKlHQmbd7kV8AP0j-134" target="8r8kBKlHQmbd7kV8AP0j-133" edge="1">
          <mxGeometry relative="1" as="geometry" />
        </mxCell>
        <mxCell id="8r8kBKlHQmbd7kV8AP0j-134" value="Report ID" style="ellipse;whiteSpace=wrap;html=1;align=center;fontStyle=4;fontFamily=Helvetica;fontSize=11;fontColor=default;" parent="1" vertex="1">
          <mxGeometry x="-813.75" y="-650" width="57.5" height="30" as="geometry" />
        </mxCell>
        <mxCell id="8r8kBKlHQmbd7kV8AP0j-361" style="edgeStyle=orthogonalEdgeStyle;shape=connector;rounded=0;orthogonalLoop=1;jettySize=auto;html=1;exitX=1;exitY=0.5;exitDx=0;exitDy=0;entryX=0.25;entryY=0;entryDx=0;entryDy=0;labelBackgroundColor=default;strokeColor=default;fontFamily=Helvetica;fontSize=11;fontColor=default;endArrow=none;endFill=0;" parent="1" source="8r8kBKlHQmbd7kV8AP0j-135" target="8r8kBKlHQmbd7kV8AP0j-354" edge="1">
          <mxGeometry relative="1" as="geometry" />
        </mxCell>
        <mxCell id="8r8kBKlHQmbd7kV8AP0j-135" value="Message" style="ellipse;whiteSpace=wrap;html=1;align=center;fontFamily=Helvetica;fontSize=11;fontColor=default;" parent="1" vertex="1">
          <mxGeometry x="-930" y="-510" width="47.5" height="30" as="geometry" />
        </mxCell>
        <mxCell id="8r8kBKlHQmbd7kV8AP0j-166" style="edgeStyle=orthogonalEdgeStyle;shape=connector;rounded=0;orthogonalLoop=1;jettySize=auto;html=1;exitX=1;exitY=0.5;exitDx=0;exitDy=0;entryX=0.25;entryY=0;entryDx=0;entryDy=0;labelBackgroundColor=default;strokeColor=default;fontFamily=Helvetica;fontSize=11;fontColor=default;endArrow=none;endFill=0;" parent="1" source="8r8kBKlHQmbd7kV8AP0j-136" target="8r8kBKlHQmbd7kV8AP0j-133" edge="1">
          <mxGeometry relative="1" as="geometry" />
        </mxCell>
        <mxCell id="8r8kBKlHQmbd7kV8AP0j-136" value="Reason" style="ellipse;whiteSpace=wrap;html=1;align=center;fontFamily=Helvetica;fontSize=11;fontColor=default;" parent="1" vertex="1">
          <mxGeometry x="-867.5" y="-630" width="47.5" height="30" as="geometry" />
        </mxCell>
        <mxCell id="8r8kBKlHQmbd7kV8AP0j-173" style="edgeStyle=orthogonalEdgeStyle;shape=connector;rounded=0;orthogonalLoop=1;jettySize=auto;html=1;exitX=1;exitY=0;exitDx=0;exitDy=0;entryX=0;entryY=0.5;entryDx=0;entryDy=0;labelBackgroundColor=default;strokeColor=default;fontFamily=Helvetica;fontSize=11;fontColor=default;endArrow=none;endFill=0;" parent="1" source="8r8kBKlHQmbd7kV8AP0j-137" target="8r8kBKlHQmbd7kV8AP0j-140" edge="1">
          <mxGeometry relative="1" as="geometry">
            <Array as="points">
              <mxPoint x="-587" y="-120" />
              <mxPoint x="-567" y="-120" />
              <mxPoint x="-567" y="-123" />
            </Array>
          </mxGeometry>
        </mxCell>
        <mxCell id="8r8kBKlHQmbd7kV8AP0j-214" style="edgeStyle=orthogonalEdgeStyle;shape=connector;rounded=0;orthogonalLoop=1;jettySize=auto;html=1;exitX=1;exitY=0.25;exitDx=0;exitDy=0;labelBackgroundColor=default;strokeColor=default;fontFamily=Helvetica;fontSize=11;fontColor=default;endArrow=none;endFill=0;startArrow=ERmandOne;startFill=0;" parent="1" source="8r8kBKlHQmbd7kV8AP0j-137" target="8r8kBKlHQmbd7kV8AP0j-212" edge="1">
          <mxGeometry relative="1" as="geometry" />
        </mxCell>
        <mxCell id="8r8kBKlHQmbd7kV8AP0j-216" style="edgeStyle=orthogonalEdgeStyle;shape=connector;rounded=0;orthogonalLoop=1;jettySize=auto;html=1;exitX=1;exitY=0.5;exitDx=0;exitDy=0;entryX=0;entryY=0.5;entryDx=0;entryDy=0;labelBackgroundColor=default;strokeColor=default;fontFamily=Helvetica;fontSize=11;fontColor=default;endArrow=none;endFill=0;startArrow=ERmandOne;startFill=0;" parent="1" source="8r8kBKlHQmbd7kV8AP0j-137" target="8r8kBKlHQmbd7kV8AP0j-211" edge="1">
          <mxGeometry relative="1" as="geometry">
            <Array as="points">
              <mxPoint x="-520" y="-95" />
              <mxPoint x="-520" y="66" />
              <mxPoint x="-434" y="66" />
            </Array>
          </mxGeometry>
        </mxCell>
        <mxCell id="8r8kBKlHQmbd7kV8AP0j-233" style="edgeStyle=orthogonalEdgeStyle;shape=connector;rounded=0;orthogonalLoop=1;jettySize=auto;html=1;exitX=1;exitY=1;exitDx=0;exitDy=0;entryX=0;entryY=0.5;entryDx=0;entryDy=0;labelBackgroundColor=default;strokeColor=default;fontFamily=Helvetica;fontSize=11;fontColor=default;endArrow=none;endFill=0;startArrow=ERmandOne;startFill=0;" parent="1" source="8r8kBKlHQmbd7kV8AP0j-137" target="8r8kBKlHQmbd7kV8AP0j-222" edge="1">
          <mxGeometry relative="1" as="geometry">
            <Array as="points">
              <mxPoint x="-587" y="30" />
              <mxPoint x="-490" y="30" />
            </Array>
          </mxGeometry>
        </mxCell>
        <mxCell id="8r8kBKlHQmbd7kV8AP0j-247" style="edgeStyle=orthogonalEdgeStyle;shape=connector;rounded=0;orthogonalLoop=1;jettySize=auto;html=1;exitX=0.25;exitY=1;exitDx=0;exitDy=0;labelBackgroundColor=default;strokeColor=default;fontFamily=Helvetica;fontSize=11;fontColor=default;endArrow=none;endFill=0;startArrow=ERmandOne;startFill=0;" parent="1" source="8r8kBKlHQmbd7kV8AP0j-137" target="8r8kBKlHQmbd7kV8AP0j-206" edge="1">
          <mxGeometry relative="1" as="geometry" />
        </mxCell>
        <mxCell id="8r8kBKlHQmbd7kV8AP0j-252" style="edgeStyle=orthogonalEdgeStyle;shape=connector;rounded=0;orthogonalLoop=1;jettySize=auto;html=1;exitX=0;exitY=0.5;exitDx=0;exitDy=0;entryX=0;entryY=0.5;entryDx=0;entryDy=0;labelBackgroundColor=default;strokeColor=default;fontFamily=Helvetica;fontSize=11;fontColor=default;endArrow=none;endFill=0;startArrow=ERmandOne;startFill=0;" parent="1" source="8r8kBKlHQmbd7kV8AP0j-137" target="8r8kBKlHQmbd7kV8AP0j-132" edge="1">
          <mxGeometry relative="1" as="geometry" />
        </mxCell>
        <mxCell id="8r8kBKlHQmbd7kV8AP0j-258" style="edgeStyle=orthogonalEdgeStyle;shape=connector;rounded=0;orthogonalLoop=1;jettySize=auto;html=1;exitX=1;exitY=0.75;exitDx=0;exitDy=0;entryX=0.5;entryY=1;entryDx=0;entryDy=0;labelBackgroundColor=default;strokeColor=default;fontFamily=Helvetica;fontSize=11;fontColor=default;endArrow=none;endFill=0;startArrow=ERmandOne;startFill=0;" parent="1" source="8r8kBKlHQmbd7kV8AP0j-137" target="8r8kBKlHQmbd7kV8AP0j-253" edge="1">
          <mxGeometry relative="1" as="geometry" />
        </mxCell>
        <mxCell id="8r8kBKlHQmbd7kV8AP0j-270" style="edgeStyle=orthogonalEdgeStyle;shape=connector;rounded=0;orthogonalLoop=1;jettySize=auto;html=1;entryX=1;entryY=0.5;entryDx=0;entryDy=0;labelBackgroundColor=default;strokeColor=default;fontFamily=Helvetica;fontSize=11;fontColor=default;endArrow=none;endFill=0;exitX=0;exitY=1;exitDx=0;exitDy=0;startArrow=ERmandOne;startFill=0;" parent="1" source="8r8kBKlHQmbd7kV8AP0j-137" target="8r8kBKlHQmbd7kV8AP0j-268" edge="1">
          <mxGeometry relative="1" as="geometry">
            <mxPoint x="-700" y="-60" as="sourcePoint" />
          </mxGeometry>
        </mxCell>
        <mxCell id="8r8kBKlHQmbd7kV8AP0j-137" value="Client" style="whiteSpace=wrap;html=1;align=center;fontFamily=Helvetica;fontSize=11;fontColor=default;" parent="1" vertex="1">
          <mxGeometry x="-687.5" y="-115" width="100" height="40" as="geometry" />
        </mxCell>
        <mxCell id="8r8kBKlHQmbd7kV8AP0j-169" style="edgeStyle=orthogonalEdgeStyle;shape=connector;rounded=0;orthogonalLoop=1;jettySize=auto;html=1;exitX=0.5;exitY=1;exitDx=0;exitDy=0;entryX=0.25;entryY=0;entryDx=0;entryDy=0;labelBackgroundColor=default;strokeColor=default;fontFamily=Helvetica;fontSize=11;fontColor=default;endArrow=none;endFill=0;" parent="1" source="8r8kBKlHQmbd7kV8AP0j-138" target="8r8kBKlHQmbd7kV8AP0j-137" edge="1">
          <mxGeometry relative="1" as="geometry" />
        </mxCell>
        <mxCell id="8r8kBKlHQmbd7kV8AP0j-138" value="National ID" style="ellipse;whiteSpace=wrap;html=1;align=center;fontStyle=4;fontFamily=Helvetica;fontSize=11;fontColor=default;" parent="1" vertex="1">
          <mxGeometry x="-705" y="-195" width="60" height="30" as="geometry" />
        </mxCell>
        <mxCell id="8r8kBKlHQmbd7kV8AP0j-171" style="edgeStyle=orthogonalEdgeStyle;shape=connector;rounded=0;orthogonalLoop=1;jettySize=auto;html=1;exitX=0;exitY=1;exitDx=0;exitDy=0;entryX=0.5;entryY=0;entryDx=0;entryDy=0;labelBackgroundColor=default;strokeColor=default;fontFamily=Helvetica;fontSize=11;fontColor=default;endArrow=none;endFill=0;" parent="1" source="8r8kBKlHQmbd7kV8AP0j-139" target="8r8kBKlHQmbd7kV8AP0j-137" edge="1">
          <mxGeometry relative="1" as="geometry" />
        </mxCell>
        <mxCell id="8r8kBKlHQmbd7kV8AP0j-139" value="Name" style="ellipse;whiteSpace=wrap;html=1;align=center;fontFamily=Helvetica;fontSize=11;fontColor=default;" parent="1" vertex="1">
          <mxGeometry x="-631.25" y="-161.87" width="42.5" height="23.75" as="geometry" />
        </mxCell>
        <mxCell id="8r8kBKlHQmbd7kV8AP0j-140" value="DOB" style="ellipse;whiteSpace=wrap;html=1;align=center;fontFamily=Helvetica;fontSize=11;fontColor=default;" parent="1" vertex="1">
          <mxGeometry x="-547.5" y="-138.12" width="40" height="30" as="geometry" />
        </mxCell>
        <mxCell id="8r8kBKlHQmbd7kV8AP0j-170" style="edgeStyle=orthogonalEdgeStyle;shape=connector;rounded=0;orthogonalLoop=1;jettySize=auto;html=1;exitX=0.5;exitY=1;exitDx=0;exitDy=0;entryX=0;entryY=0;entryDx=0;entryDy=0;labelBackgroundColor=default;strokeColor=default;fontFamily=Helvetica;fontSize=11;fontColor=default;endArrow=none;endFill=0;" parent="1" source="8r8kBKlHQmbd7kV8AP0j-141" target="8r8kBKlHQmbd7kV8AP0j-137" edge="1">
          <mxGeometry relative="1" as="geometry" />
        </mxCell>
        <mxCell id="8r8kBKlHQmbd7kV8AP0j-141" value="Phone Number" style="ellipse;whiteSpace=wrap;html=1;align=center;fontFamily=Helvetica;fontSize=11;fontColor=default;" parent="1" vertex="1">
          <mxGeometry x="-725" y="-158.75" width="47.5" height="30" as="geometry" />
        </mxCell>
        <mxCell id="8r8kBKlHQmbd7kV8AP0j-172" style="edgeStyle=orthogonalEdgeStyle;shape=connector;rounded=0;orthogonalLoop=1;jettySize=auto;html=1;exitX=0;exitY=1;exitDx=0;exitDy=0;entryX=0.75;entryY=0;entryDx=0;entryDy=0;labelBackgroundColor=default;strokeColor=default;fontFamily=Helvetica;fontSize=11;fontColor=default;endArrow=none;endFill=0;" parent="1" source="8r8kBKlHQmbd7kV8AP0j-142" target="8r8kBKlHQmbd7kV8AP0j-137" edge="1">
          <mxGeometry relative="1" as="geometry" />
        </mxCell>
        <mxCell id="8r8kBKlHQmbd7kV8AP0j-142" value="Adress" style="ellipse;whiteSpace=wrap;html=1;align=center;fontFamily=Helvetica;fontSize=11;fontColor=default;" parent="1" vertex="1">
          <mxGeometry x="-588.75" y="-161.87" width="42.5" height="30" as="geometry" />
        </mxCell>
        <mxCell id="8r8kBKlHQmbd7kV8AP0j-245" style="edgeStyle=orthogonalEdgeStyle;shape=connector;rounded=0;orthogonalLoop=1;jettySize=auto;html=1;exitX=1;exitY=0;exitDx=0;exitDy=0;entryX=0;entryY=0.5;entryDx=0;entryDy=0;labelBackgroundColor=default;strokeColor=default;fontFamily=Helvetica;fontSize=11;fontColor=default;endArrow=none;endFill=0;startArrow=ERzeroToMany;startFill=0;" parent="1" source="8r8kBKlHQmbd7kV8AP0j-314" target="8r8kBKlHQmbd7kV8AP0j-153" edge="1">
          <mxGeometry relative="1" as="geometry">
            <mxPoint x="-810" y="315" as="sourcePoint" />
            <Array as="points">
              <mxPoint x="-775" y="315" />
            </Array>
          </mxGeometry>
        </mxCell>
        <mxCell id="8r8kBKlHQmbd7kV8AP0j-249" style="edgeStyle=orthogonalEdgeStyle;shape=connector;rounded=0;orthogonalLoop=1;jettySize=auto;html=1;exitX=1;exitY=0.75;exitDx=0;exitDy=0;entryX=0;entryY=0.5;entryDx=0;entryDy=0;labelBackgroundColor=default;strokeColor=default;fontFamily=Helvetica;fontSize=11;fontColor=default;endArrow=none;endFill=0;startArrow=ERzeroToMany;startFill=0;" parent="1" source="8r8kBKlHQmbd7kV8AP0j-314" target="8r8kBKlHQmbd7kV8AP0j-155" edge="1">
          <mxGeometry relative="1" as="geometry">
            <mxPoint x="-810" y="345" as="sourcePoint" />
          </mxGeometry>
        </mxCell>
        <mxCell id="8r8kBKlHQmbd7kV8AP0j-317" style="edgeStyle=orthogonalEdgeStyle;shape=connector;rounded=0;orthogonalLoop=1;jettySize=auto;html=1;exitX=0.5;exitY=1;exitDx=0;exitDy=0;entryX=0.5;entryY=0;entryDx=0;entryDy=0;labelBackgroundColor=default;strokeColor=default;fontFamily=Helvetica;fontSize=11;fontColor=default;endArrow=none;endFill=0;" parent="1" source="8r8kBKlHQmbd7kV8AP0j-151" target="8r8kBKlHQmbd7kV8AP0j-314" edge="1">
          <mxGeometry relative="1" as="geometry" />
        </mxCell>
        <mxCell id="8r8kBKlHQmbd7kV8AP0j-151" value="Expiry Date" style="ellipse;whiteSpace=wrap;html=1;align=center;fontFamily=Helvetica;fontSize=11;fontColor=default;" parent="1" vertex="1">
          <mxGeometry x="-892.5" y="250" width="62.5" height="30" as="geometry" />
        </mxCell>
        <mxCell id="8r8kBKlHQmbd7kV8AP0j-200" style="edgeStyle=orthogonalEdgeStyle;shape=connector;rounded=0;orthogonalLoop=1;jettySize=auto;html=1;exitX=1;exitY=0.5;exitDx=0;exitDy=0;entryX=0.25;entryY=0;entryDx=0;entryDy=0;labelBackgroundColor=default;strokeColor=default;fontFamily=Helvetica;fontSize=11;fontColor=default;endArrow=none;endFill=0;" parent="1" source="8r8kBKlHQmbd7kV8AP0j-152" target="8r8kBKlHQmbd7kV8AP0j-314" edge="1">
          <mxGeometry relative="1" as="geometry">
            <mxPoint x="-885" y="315" as="targetPoint" />
          </mxGeometry>
        </mxCell>
        <mxCell id="8r8kBKlHQmbd7kV8AP0j-152" value="Amount" style="ellipse;whiteSpace=wrap;html=1;align=center;fontFamily=Helvetica;fontSize=11;fontColor=default;" parent="1" vertex="1">
          <mxGeometry x="-940" y="270" width="47.5" height="30" as="geometry" />
        </mxCell>
        <mxCell id="8r8kBKlHQmbd7kV8AP0j-248" style="edgeStyle=orthogonalEdgeStyle;shape=connector;rounded=0;orthogonalLoop=1;jettySize=auto;html=1;exitX=1;exitY=0.5;exitDx=0;exitDy=0;entryX=0.5;entryY=1;entryDx=0;entryDy=0;labelBackgroundColor=default;strokeColor=default;fontFamily=Helvetica;fontSize=11;fontColor=default;endArrow=ERmandOne;endFill=0;" parent="1" source="8r8kBKlHQmbd7kV8AP0j-153" target="8r8kBKlHQmbd7kV8AP0j-137" edge="1">
          <mxGeometry relative="1" as="geometry" />
        </mxCell>
        <mxCell id="8r8kBKlHQmbd7kV8AP0j-153" value="views" style="shape=rhombus;perimeter=rhombusPerimeter;whiteSpace=wrap;html=1;align=center;fontFamily=Helvetica;fontSize=11;fontColor=default;" parent="1" vertex="1">
          <mxGeometry x="-775" y="280" width="47.5" height="45" as="geometry" />
        </mxCell>
        <mxCell id="8r8kBKlHQmbd7kV8AP0j-203" style="edgeStyle=orthogonalEdgeStyle;shape=connector;rounded=0;orthogonalLoop=1;jettySize=auto;html=1;exitX=1;exitY=0.5;exitDx=0;exitDy=0;entryX=0;entryY=0.5;entryDx=0;entryDy=0;labelBackgroundColor=default;strokeColor=default;fontFamily=Helvetica;fontSize=11;fontColor=default;endArrow=ERzeroToMany;endFill=0;" parent="1" source="8r8kBKlHQmbd7kV8AP0j-316" edge="1">
          <mxGeometry relative="1" as="geometry">
            <mxPoint x="-967.5" y="335" as="sourcePoint" />
            <mxPoint x="-910" y="335" as="targetPoint" />
          </mxGeometry>
        </mxCell>
        <mxCell id="8r8kBKlHQmbd7kV8AP0j-243" style="edgeStyle=orthogonalEdgeStyle;shape=connector;rounded=0;orthogonalLoop=1;jettySize=auto;html=1;exitX=0;exitY=0.5;exitDx=0;exitDy=0;entryX=0.5;entryY=1;entryDx=0;entryDy=0;labelBackgroundColor=default;strokeColor=default;fontFamily=Helvetica;fontSize=11;fontColor=default;endArrow=ERmandOne;endFill=0;startArrow=none;startFill=0;" parent="1" source="8r8kBKlHQmbd7kV8AP0j-316" target="8r8kBKlHQmbd7kV8AP0j-21" edge="1">
          <mxGeometry relative="1" as="geometry">
            <mxPoint x="-1027.5" y="335" as="sourcePoint" />
          </mxGeometry>
        </mxCell>
        <mxCell id="8r8kBKlHQmbd7kV8AP0j-250" style="edgeStyle=orthogonalEdgeStyle;shape=connector;rounded=0;orthogonalLoop=1;jettySize=auto;html=1;exitX=1;exitY=0.5;exitDx=0;exitDy=0;entryX=0.75;entryY=1;entryDx=0;entryDy=0;labelBackgroundColor=default;strokeColor=default;fontFamily=Helvetica;fontSize=11;fontColor=default;endArrow=ERmandOne;endFill=0;" parent="1" source="8r8kBKlHQmbd7kV8AP0j-155" target="8r8kBKlHQmbd7kV8AP0j-137" edge="1">
          <mxGeometry relative="1" as="geometry" />
        </mxCell>
        <mxCell id="8r8kBKlHQmbd7kV8AP0j-155" value="redeems" style="shape=rhombus;perimeter=rhombusPerimeter;whiteSpace=wrap;html=1;align=center;fontFamily=Helvetica;fontSize=11;fontColor=default;" parent="1" vertex="1">
          <mxGeometry x="-790" y="332.5" width="80" height="45" as="geometry" />
        </mxCell>
        <mxCell id="8r8kBKlHQmbd7kV8AP0j-255" style="edgeStyle=orthogonalEdgeStyle;shape=connector;rounded=0;orthogonalLoop=1;jettySize=auto;html=1;exitX=0;exitY=0.25;exitDx=0;exitDy=0;entryX=1;entryY=0.5;entryDx=0;entryDy=0;labelBackgroundColor=default;strokeColor=default;fontFamily=Helvetica;fontSize=11;fontColor=default;endArrow=none;endFill=0;startArrow=ERzeroToMany;startFill=0;" parent="1" source="8r8kBKlHQmbd7kV8AP0j-156" target="8r8kBKlHQmbd7kV8AP0j-254" edge="1">
          <mxGeometry relative="1" as="geometry" />
        </mxCell>
        <mxCell id="8r8kBKlHQmbd7kV8AP0j-156" value="Request" style="whiteSpace=wrap;html=1;align=center;fontFamily=Helvetica;fontSize=11;fontColor=default;" parent="1" vertex="1">
          <mxGeometry x="-380" y="-300" width="100" height="40" as="geometry" />
        </mxCell>
        <mxCell id="8r8kBKlHQmbd7kV8AP0j-324" style="edgeStyle=orthogonalEdgeStyle;shape=connector;rounded=0;orthogonalLoop=1;jettySize=auto;html=1;exitX=0;exitY=1;exitDx=0;exitDy=0;entryX=0;entryY=0;entryDx=0;entryDy=0;labelBackgroundColor=default;strokeColor=default;fontFamily=Helvetica;fontSize=11;fontColor=default;endArrow=none;endFill=0;" parent="1" source="8r8kBKlHQmbd7kV8AP0j-157" target="8r8kBKlHQmbd7kV8AP0j-322" edge="1">
          <mxGeometry relative="1" as="geometry" />
        </mxCell>
        <mxCell id="8r8kBKlHQmbd7kV8AP0j-326" style="edgeStyle=orthogonalEdgeStyle;shape=connector;rounded=0;orthogonalLoop=1;jettySize=auto;html=1;exitX=0.5;exitY=1;exitDx=0;exitDy=0;entryX=0.5;entryY=0;entryDx=0;entryDy=0;labelBackgroundColor=default;strokeColor=default;fontFamily=Helvetica;fontSize=11;fontColor=default;endArrow=none;endFill=0;" parent="1" source="8r8kBKlHQmbd7kV8AP0j-157" target="8r8kBKlHQmbd7kV8AP0j-325" edge="1">
          <mxGeometry relative="1" as="geometry" />
        </mxCell>
        <mxCell id="8r8kBKlHQmbd7kV8AP0j-157" value="Credit Card Application" style="whiteSpace=wrap;html=1;align=center;fontFamily=Helvetica;fontSize=11;fontColor=default;" parent="1" vertex="1">
          <mxGeometry x="-427.5" y="-188.75" width="100" height="40" as="geometry" />
        </mxCell>
        <mxCell id="8r8kBKlHQmbd7kV8AP0j-294" style="edgeStyle=orthogonalEdgeStyle;shape=connector;rounded=0;orthogonalLoop=1;jettySize=auto;html=1;exitX=1;exitY=0.25;exitDx=0;exitDy=0;entryX=0;entryY=0.5;entryDx=0;entryDy=0;labelBackgroundColor=default;strokeColor=default;fontFamily=Helvetica;fontSize=11;fontColor=default;endArrow=none;endFill=0;" parent="1" source="8r8kBKlHQmbd7kV8AP0j-158" target="8r8kBKlHQmbd7kV8AP0j-293" edge="1">
          <mxGeometry relative="1" as="geometry" />
        </mxCell>
        <mxCell id="8r8kBKlHQmbd7kV8AP0j-295" style="edgeStyle=orthogonalEdgeStyle;shape=connector;rounded=0;orthogonalLoop=1;jettySize=auto;html=1;exitX=1;exitY=0.5;exitDx=0;exitDy=0;entryX=0;entryY=0.5;entryDx=0;entryDy=0;labelBackgroundColor=default;strokeColor=default;fontFamily=Helvetica;fontSize=11;fontColor=default;endArrow=none;endFill=0;" parent="1" source="8r8kBKlHQmbd7kV8AP0j-158" target="8r8kBKlHQmbd7kV8AP0j-292" edge="1">
          <mxGeometry relative="1" as="geometry" />
        </mxCell>
        <mxCell id="8r8kBKlHQmbd7kV8AP0j-297" style="edgeStyle=orthogonalEdgeStyle;shape=connector;rounded=0;orthogonalLoop=1;jettySize=auto;html=1;exitX=1;exitY=0.75;exitDx=0;exitDy=0;entryX=0;entryY=0;entryDx=0;entryDy=0;labelBackgroundColor=default;strokeColor=default;fontFamily=Helvetica;fontSize=11;fontColor=default;endArrow=none;endFill=0;" parent="1" source="8r8kBKlHQmbd7kV8AP0j-158" target="8r8kBKlHQmbd7kV8AP0j-296" edge="1">
          <mxGeometry relative="1" as="geometry" />
        </mxCell>
        <mxCell id="8r8kBKlHQmbd7kV8AP0j-158" value="Loan Application" style="whiteSpace=wrap;html=1;align=center;fontFamily=Helvetica;fontSize=11;fontColor=default;" parent="1" vertex="1">
          <mxGeometry x="-312.5" y="-190" width="100" height="40" as="geometry" />
        </mxCell>
        <mxCell id="8r8kBKlHQmbd7kV8AP0j-188" style="edgeStyle=orthogonalEdgeStyle;shape=connector;rounded=0;orthogonalLoop=1;jettySize=auto;html=1;exitX=0;exitY=0;exitDx=0;exitDy=0;entryX=0.407;entryY=1.052;entryDx=0;entryDy=0;entryPerimeter=0;labelBackgroundColor=default;strokeColor=default;fontFamily=Helvetica;fontSize=11;fontColor=default;endArrow=none;endFill=0;" parent="1" source="8r8kBKlHQmbd7kV8AP0j-186" target="8r8kBKlHQmbd7kV8AP0j-156" edge="1">
          <mxGeometry relative="1" as="geometry" />
        </mxCell>
        <mxCell id="8r8kBKlHQmbd7kV8AP0j-189" style="edgeStyle=orthogonalEdgeStyle;shape=connector;rounded=0;orthogonalLoop=1;jettySize=auto;html=1;exitX=1;exitY=0;exitDx=0;exitDy=0;entryX=0.585;entryY=1.029;entryDx=0;entryDy=0;entryPerimeter=0;labelBackgroundColor=default;strokeColor=default;fontFamily=Helvetica;fontSize=11;fontColor=default;endArrow=none;endFill=0;" parent="1" source="8r8kBKlHQmbd7kV8AP0j-186" target="8r8kBKlHQmbd7kV8AP0j-156" edge="1">
          <mxGeometry relative="1" as="geometry" />
        </mxCell>
        <mxCell id="8r8kBKlHQmbd7kV8AP0j-190" style="edgeStyle=orthogonalEdgeStyle;shape=connector;rounded=0;orthogonalLoop=1;jettySize=auto;html=1;exitX=0;exitY=0.5;exitDx=0;exitDy=0;labelBackgroundColor=default;strokeColor=default;fontFamily=Helvetica;fontSize=11;fontColor=default;endArrow=none;endFill=0;" parent="1" source="8r8kBKlHQmbd7kV8AP0j-186" target="8r8kBKlHQmbd7kV8AP0j-157" edge="1">
          <mxGeometry relative="1" as="geometry" />
        </mxCell>
        <mxCell id="8r8kBKlHQmbd7kV8AP0j-191" style="edgeStyle=orthogonalEdgeStyle;shape=connector;rounded=0;orthogonalLoop=1;jettySize=auto;html=1;exitX=1;exitY=0.5;exitDx=0;exitDy=0;labelBackgroundColor=default;strokeColor=default;fontFamily=Helvetica;fontSize=11;fontColor=default;endArrow=none;endFill=0;" parent="1" source="8r8kBKlHQmbd7kV8AP0j-186" target="8r8kBKlHQmbd7kV8AP0j-158" edge="1">
          <mxGeometry relative="1" as="geometry" />
        </mxCell>
        <mxCell id="8r8kBKlHQmbd7kV8AP0j-186" value="d" style="ellipse;whiteSpace=wrap;html=1;aspect=fixed;" parent="1" vertex="1">
          <mxGeometry x="-342.5" y="-240" width="25" height="25" as="geometry" />
        </mxCell>
        <mxCell id="8r8kBKlHQmbd7kV8AP0j-195" style="edgeStyle=orthogonalEdgeStyle;shape=connector;rounded=0;orthogonalLoop=1;jettySize=auto;html=1;exitX=0.5;exitY=1;exitDx=0;exitDy=0;labelBackgroundColor=default;strokeColor=default;fontFamily=Helvetica;fontSize=11;fontColor=default;endArrow=none;endFill=0;" parent="1" source="8r8kBKlHQmbd7kV8AP0j-192" target="8r8kBKlHQmbd7kV8AP0j-156" edge="1">
          <mxGeometry relative="1" as="geometry" />
        </mxCell>
        <mxCell id="8r8kBKlHQmbd7kV8AP0j-192" value="Request ID" style="ellipse;whiteSpace=wrap;html=1;align=center;fontStyle=4;fontFamily=Helvetica;fontSize=11;fontColor=default;" parent="1" vertex="1">
          <mxGeometry x="-365" y="-377.5" width="70" height="35" as="geometry" />
        </mxCell>
        <mxCell id="8r8kBKlHQmbd7kV8AP0j-196" style="edgeStyle=orthogonalEdgeStyle;shape=connector;rounded=0;orthogonalLoop=1;jettySize=auto;html=1;exitX=1;exitY=0.5;exitDx=0;exitDy=0;entryX=0.25;entryY=0;entryDx=0;entryDy=0;labelBackgroundColor=default;strokeColor=default;fontFamily=Helvetica;fontSize=11;fontColor=default;endArrow=none;endFill=0;" parent="1" source="8r8kBKlHQmbd7kV8AP0j-193" target="8r8kBKlHQmbd7kV8AP0j-156" edge="1">
          <mxGeometry relative="1" as="geometry" />
        </mxCell>
        <mxCell id="8r8kBKlHQmbd7kV8AP0j-193" value="Date" style="ellipse;whiteSpace=wrap;html=1;align=center;fontFamily=Helvetica;fontSize=11;fontColor=default;" parent="1" vertex="1">
          <mxGeometry x="-395" y="-345" width="35" height="30" as="geometry" />
        </mxCell>
        <mxCell id="8r8kBKlHQmbd7kV8AP0j-207" style="edgeStyle=orthogonalEdgeStyle;shape=connector;rounded=0;orthogonalLoop=1;jettySize=auto;html=1;exitX=1;exitY=0.5;exitDx=0;exitDy=0;entryX=0;entryY=0.5;entryDx=0;entryDy=0;labelBackgroundColor=default;strokeColor=default;fontFamily=Helvetica;fontSize=11;fontColor=default;endArrow=ERzeroToMany;endFill=0;" parent="1" source="8r8kBKlHQmbd7kV8AP0j-205" target="8r8kBKlHQmbd7kV8AP0j-114" edge="1">
          <mxGeometry relative="1" as="geometry" />
        </mxCell>
        <mxCell id="8r8kBKlHQmbd7kV8AP0j-209" style="edgeStyle=orthogonalEdgeStyle;shape=connector;rounded=0;orthogonalLoop=1;jettySize=auto;html=1;exitX=0.5;exitY=0;exitDx=0;exitDy=0;entryX=0.5;entryY=1;entryDx=0;entryDy=0;labelBackgroundColor=default;strokeColor=default;fontFamily=Helvetica;fontSize=11;fontColor=default;endArrow=ERmandOne;endFill=0;startArrow=none;startFill=0;" parent="1" source="8r8kBKlHQmbd7kV8AP0j-205" target="8r8kBKlHQmbd7kV8AP0j-13" edge="1">
          <mxGeometry relative="1" as="geometry" />
        </mxCell>
        <mxCell id="8r8kBKlHQmbd7kV8AP0j-205" value="tracks" style="shape=rhombus;perimeter=rhombusPerimeter;whiteSpace=wrap;html=1;align=center;fontFamily=Helvetica;fontSize=11;fontColor=default;" parent="1" vertex="1">
          <mxGeometry x="-995" y="42.5" width="76.25" height="55" as="geometry" />
        </mxCell>
        <mxCell id="8r8kBKlHQmbd7kV8AP0j-208" style="edgeStyle=orthogonalEdgeStyle;shape=connector;rounded=0;orthogonalLoop=1;jettySize=auto;html=1;exitX=0;exitY=0.5;exitDx=0;exitDy=0;entryX=1;entryY=0.5;entryDx=0;entryDy=0;labelBackgroundColor=default;strokeColor=default;fontFamily=Helvetica;fontSize=11;fontColor=default;endArrow=none;endFill=0;" parent="1" target="8r8kBKlHQmbd7kV8AP0j-114" edge="1">
          <mxGeometry relative="1" as="geometry">
            <mxPoint x="-722.5" y="70" as="sourcePoint" />
          </mxGeometry>
        </mxCell>
        <mxCell id="8r8kBKlHQmbd7kV8AP0j-246" value="" style="edgeStyle=orthogonalEdgeStyle;shape=connector;rounded=0;orthogonalLoop=1;jettySize=auto;html=1;labelBackgroundColor=default;strokeColor=default;fontFamily=Helvetica;fontSize=11;fontColor=default;endArrow=ERzeroToMany;endFill=0;startArrow=none;startFill=0;" parent="1" source="8r8kBKlHQmbd7kV8AP0j-206" target="8r8kBKlHQmbd7kV8AP0j-114" edge="1">
          <mxGeometry relative="1" as="geometry" />
        </mxCell>
        <mxCell id="8r8kBKlHQmbd7kV8AP0j-206" value="does" style="shape=rhombus;perimeter=rhombusPerimeter;whiteSpace=wrap;html=1;align=center;fontFamily=Helvetica;fontSize=11;fontColor=default;" parent="1" vertex="1">
          <mxGeometry x="-684.35" y="50" width="45" height="40" as="geometry" />
        </mxCell>
        <mxCell id="8r8kBKlHQmbd7kV8AP0j-217" style="edgeStyle=orthogonalEdgeStyle;shape=connector;rounded=0;orthogonalLoop=1;jettySize=auto;html=1;exitX=1;exitY=0.5;exitDx=0;exitDy=0;entryX=0;entryY=0.5;entryDx=0;entryDy=0;labelBackgroundColor=default;strokeColor=default;fontFamily=Helvetica;fontSize=11;fontColor=default;endArrow=ERoneToMany;endFill=0;" parent="1" source="8r8kBKlHQmbd7kV8AP0j-211" target="8r8kBKlHQmbd7kV8AP0j-83" edge="1">
          <mxGeometry relative="1" as="geometry" />
        </mxCell>
        <mxCell id="8r8kBKlHQmbd7kV8AP0j-211" value="has" style="shape=rhombus;perimeter=rhombusPerimeter;whiteSpace=wrap;html=1;align=center;fontFamily=Helvetica;fontSize=11;fontColor=default;" parent="1" vertex="1">
          <mxGeometry x="-433.75" y="41.25" width="63.75" height="48.75" as="geometry" />
        </mxCell>
        <mxCell id="8r8kBKlHQmbd7kV8AP0j-215" style="edgeStyle=orthogonalEdgeStyle;shape=connector;rounded=0;orthogonalLoop=1;jettySize=auto;html=1;exitX=1;exitY=0.5;exitDx=0;exitDy=0;entryX=0;entryY=0.25;entryDx=0;entryDy=0;labelBackgroundColor=default;strokeColor=default;fontFamily=Helvetica;fontSize=11;fontColor=default;endArrow=ERzeroToMany;endFill=0;" parent="1" source="8r8kBKlHQmbd7kV8AP0j-212" target="8r8kBKlHQmbd7kV8AP0j-83" edge="1">
          <mxGeometry relative="1" as="geometry">
            <Array as="points">
              <mxPoint x="-425" y="30" />
            </Array>
          </mxGeometry>
        </mxCell>
        <mxCell id="8r8kBKlHQmbd7kV8AP0j-212" value="opens/closes" style="shape=rhombus;perimeter=rhombusPerimeter;whiteSpace=wrap;html=1;align=center;fontFamily=Helvetica;fontSize=11;fontColor=default;" parent="1" vertex="1">
          <mxGeometry x="-515" y="-38.75" width="90" height="50" as="geometry" />
        </mxCell>
        <mxCell id="8r8kBKlHQmbd7kV8AP0j-240" style="edgeStyle=orthogonalEdgeStyle;shape=connector;rounded=0;orthogonalLoop=1;jettySize=auto;html=1;exitX=0.5;exitY=1;exitDx=0;exitDy=0;entryX=0.25;entryY=0;entryDx=0;entryDy=0;labelBackgroundColor=default;strokeColor=default;fontFamily=Helvetica;fontSize=11;fontColor=default;endArrow=ERzeroToMany;endFill=0;" parent="1" source="8r8kBKlHQmbd7kV8AP0j-218" target="8r8kBKlHQmbd7kV8AP0j-59" edge="1">
          <mxGeometry relative="1" as="geometry" />
        </mxCell>
        <mxCell id="8r8kBKlHQmbd7kV8AP0j-218" value="transfers" style="shape=rhombus;perimeter=rhombusPerimeter;whiteSpace=wrap;html=1;align=center;fontFamily=Helvetica;fontSize=11;fontColor=default;" parent="1" vertex="1">
          <mxGeometry x="-276.25" y="100" width="90" height="50" as="geometry" />
        </mxCell>
        <mxCell id="8r8kBKlHQmbd7kV8AP0j-232" style="edgeStyle=orthogonalEdgeStyle;shape=connector;rounded=0;orthogonalLoop=1;jettySize=auto;html=1;exitX=1;exitY=0.5;exitDx=0;exitDy=0;entryX=0.5;entryY=1;entryDx=0;entryDy=0;labelBackgroundColor=default;strokeColor=default;fontFamily=Helvetica;fontSize=11;fontColor=default;endArrow=ERmandOne;endFill=0;" parent="1" source="8r8kBKlHQmbd7kV8AP0j-222" target="8r8kBKlHQmbd7kV8AP0j-83" edge="1">
          <mxGeometry relative="1" as="geometry" />
        </mxCell>
        <mxCell id="8r8kBKlHQmbd7kV8AP0j-237" style="edgeStyle=orthogonalEdgeStyle;shape=connector;rounded=0;orthogonalLoop=1;jettySize=auto;html=1;exitX=0.5;exitY=1;exitDx=0;exitDy=0;entryX=0.75;entryY=0;entryDx=0;entryDy=0;labelBackgroundColor=default;strokeColor=default;fontFamily=Helvetica;fontSize=11;fontColor=default;endArrow=ERzeroToMany;endFill=0;" parent="1" source="8r8kBKlHQmbd7kV8AP0j-222" target="8r8kBKlHQmbd7kV8AP0j-96" edge="1">
          <mxGeometry relative="1" as="geometry">
            <Array as="points">
              <mxPoint x="-455" y="310" />
              <mxPoint x="-452" y="310" />
            </Array>
          </mxGeometry>
        </mxCell>
        <mxCell id="8r8kBKlHQmbd7kV8AP0j-222" value="pays" style="shape=rhombus;perimeter=rhombusPerimeter;whiteSpace=wrap;html=1;align=center;fontFamily=Helvetica;fontSize=11;fontColor=default;" parent="1" vertex="1">
          <mxGeometry x="-490" y="90" width="70" height="40" as="geometry" />
        </mxCell>
        <mxCell id="8r8kBKlHQmbd7kV8AP0j-257" style="edgeStyle=orthogonalEdgeStyle;shape=connector;rounded=0;orthogonalLoop=1;jettySize=auto;html=1;exitX=1;exitY=0.5;exitDx=0;exitDy=0;entryX=0;entryY=0.5;entryDx=0;entryDy=0;labelBackgroundColor=default;strokeColor=default;fontFamily=Helvetica;fontSize=11;fontColor=default;endArrow=ERzeroToMany;endFill=0;" parent="1" source="8r8kBKlHQmbd7kV8AP0j-253" target="8r8kBKlHQmbd7kV8AP0j-156" edge="1">
          <mxGeometry relative="1" as="geometry" />
        </mxCell>
        <mxCell id="8r8kBKlHQmbd7kV8AP0j-253" value="does" style="shape=rhombus;perimeter=rhombusPerimeter;whiteSpace=wrap;html=1;align=center;fontFamily=Helvetica;fontSize=11;fontColor=default;" parent="1" vertex="1">
          <mxGeometry x="-487.5" y="-240" width="65" height="45" as="geometry" />
        </mxCell>
        <mxCell id="8r8kBKlHQmbd7kV8AP0j-254" value="receives and reviews" style="shape=rhombus;perimeter=rhombusPerimeter;whiteSpace=wrap;html=1;align=center;fontFamily=Helvetica;fontSize=11;fontColor=default;" parent="1" vertex="1">
          <mxGeometry x="-546.25" y="-315" width="120" height="60" as="geometry" />
        </mxCell>
        <mxCell id="8r8kBKlHQmbd7kV8AP0j-344" style="edgeStyle=orthogonalEdgeStyle;shape=connector;rounded=0;orthogonalLoop=1;jettySize=auto;html=1;exitX=0;exitY=0.5;exitDx=0;exitDy=0;entryX=1;entryY=0.25;entryDx=0;entryDy=0;labelBackgroundColor=default;strokeColor=default;fontFamily=Helvetica;fontSize=11;fontColor=default;endArrow=ERzeroToMany;endFill=0;startArrow=none;startFill=0;" parent="1" source="8r8kBKlHQmbd7kV8AP0j-261" target="8r8kBKlHQmbd7kV8AP0j-127" edge="1">
          <mxGeometry relative="1" as="geometry" />
        </mxCell>
        <mxCell id="8r8kBKlHQmbd7kV8AP0j-345" style="edgeStyle=orthogonalEdgeStyle;shape=connector;rounded=0;orthogonalLoop=1;jettySize=auto;html=1;exitX=1;exitY=0.5;exitDx=0;exitDy=0;entryX=0;entryY=0.5;entryDx=0;entryDy=0;labelBackgroundColor=default;strokeColor=default;fontFamily=Helvetica;fontSize=11;fontColor=default;endArrow=ERzeroToMany;endFill=0;" parent="1" source="8r8kBKlHQmbd7kV8AP0j-261" target="8r8kBKlHQmbd7kV8AP0j-4" edge="1">
          <mxGeometry relative="1" as="geometry" />
        </mxCell>
        <mxCell id="8r8kBKlHQmbd7kV8AP0j-261" value="receives" style="shape=rhombus;perimeter=rhombusPerimeter;whiteSpace=wrap;html=1;align=center;fontFamily=Helvetica;fontSize=11;fontColor=default;" parent="1" vertex="1">
          <mxGeometry x="-1020" y="-305" width="60" height="50" as="geometry" />
        </mxCell>
        <mxCell id="8r8kBKlHQmbd7kV8AP0j-268" value="has" style="shape=rhombus;perimeter=rhombusPerimeter;whiteSpace=wrap;html=1;align=center;fontFamily=Helvetica;fontSize=11;fontColor=default;" parent="1" vertex="1">
          <mxGeometry x="-1045" y="190" width="50" height="50" as="geometry" />
        </mxCell>
        <mxCell id="8r8kBKlHQmbd7kV8AP0j-277" style="edgeStyle=orthogonalEdgeStyle;shape=connector;rounded=0;orthogonalLoop=1;jettySize=auto;html=1;exitX=0.5;exitY=1;exitDx=0;exitDy=0;entryX=0.436;entryY=0.069;entryDx=0;entryDy=0;entryPerimeter=0;labelBackgroundColor=default;strokeColor=default;fontFamily=Helvetica;fontSize=11;fontColor=default;endArrow=ERmandOne;endFill=0;" parent="1" source="8r8kBKlHQmbd7kV8AP0j-271" target="8r8kBKlHQmbd7kV8AP0j-137" edge="1">
          <mxGeometry relative="1" as="geometry" />
        </mxCell>
        <mxCell id="8r8kBKlHQmbd7kV8AP0j-271" value="lodges" style="shape=rhombus;perimeter=rhombusPerimeter;whiteSpace=wrap;html=1;align=center;fontFamily=Helvetica;fontSize=11;fontColor=default;" parent="1" vertex="1">
          <mxGeometry x="-672.5" y="-490" width="70" height="60" as="geometry" />
        </mxCell>
        <mxCell id="8r8kBKlHQmbd7kV8AP0j-273" style="edgeStyle=orthogonalEdgeStyle;shape=connector;rounded=0;orthogonalLoop=1;jettySize=auto;html=1;exitX=0.5;exitY=0;exitDx=0;exitDy=0;entryX=0;entryY=0.25;entryDx=0;entryDy=0;labelBackgroundColor=default;strokeColor=default;fontFamily=Helvetica;fontSize=11;fontColor=default;endArrow=ERzeroToMany;endFill=0;" parent="1" source="8r8kBKlHQmbd7kV8AP0j-272" target="8r8kBKlHQmbd7kV8AP0j-133" edge="1">
          <mxGeometry relative="1" as="geometry">
            <mxPoint x="-871.25" y="-550" as="sourcePoint" />
          </mxGeometry>
        </mxCell>
        <mxCell id="8r8kBKlHQmbd7kV8AP0j-274" style="edgeStyle=orthogonalEdgeStyle;shape=connector;rounded=0;orthogonalLoop=1;jettySize=auto;html=1;exitX=1;exitY=0.5;exitDx=0;exitDy=0;labelBackgroundColor=default;strokeColor=default;fontFamily=Helvetica;fontSize=11;fontColor=default;endArrow=ERmandOne;endFill=0;" parent="1" source="8r8kBKlHQmbd7kV8AP0j-272" target="8r8kBKlHQmbd7kV8AP0j-13" edge="1">
          <mxGeometry relative="1" as="geometry">
            <Array as="points">
              <mxPoint x="-800" y="-415" />
              <mxPoint x="-800" y="-261" />
              <mxPoint x="-844" y="-261" />
            </Array>
          </mxGeometry>
        </mxCell>
        <mxCell id="8r8kBKlHQmbd7kV8AP0j-272" value="receives and reviews" style="shape=rhombus;perimeter=rhombusPerimeter;whiteSpace=wrap;html=1;align=center;fontFamily=Helvetica;fontSize=11;fontColor=default;" parent="1" vertex="1">
          <mxGeometry x="-915" y="-440" width="85" height="50" as="geometry" />
        </mxCell>
        <mxCell id="8r8kBKlHQmbd7kV8AP0j-282" style="edgeStyle=orthogonalEdgeStyle;shape=connector;rounded=0;orthogonalLoop=1;jettySize=auto;html=1;exitX=0.5;exitY=1;exitDx=0;exitDy=0;entryX=0.75;entryY=0;entryDx=0;entryDy=0;labelBackgroundColor=default;strokeColor=default;fontFamily=Helvetica;fontSize=11;fontColor=default;endArrow=ERzeroToMany;endFill=0;" parent="1" source="8r8kBKlHQmbd7kV8AP0j-280" target="8r8kBKlHQmbd7kV8AP0j-40" edge="1">
          <mxGeometry relative="1" as="geometry" />
        </mxCell>
        <mxCell id="8r8kBKlHQmbd7kV8AP0j-283" style="edgeStyle=orthogonalEdgeStyle;shape=connector;rounded=0;orthogonalLoop=1;jettySize=auto;html=1;exitX=0.5;exitY=0;exitDx=0;exitDy=0;labelBackgroundColor=default;strokeColor=default;fontFamily=Helvetica;fontSize=11;fontColor=default;endArrow=ERmandOne;endFill=0;startArrow=none;startFill=0;entryX=0.867;entryY=1.021;entryDx=0;entryDy=0;entryPerimeter=0;" parent="1" source="8r8kBKlHQmbd7kV8AP0j-280" target="8r8kBKlHQmbd7kV8AP0j-137" edge="1">
          <mxGeometry relative="1" as="geometry">
            <mxPoint x="-600" y="-70" as="targetPoint" />
          </mxGeometry>
        </mxCell>
        <mxCell id="8r8kBKlHQmbd7kV8AP0j-280" value="has" style="shape=rhombus;perimeter=rhombusPerimeter;whiteSpace=wrap;html=1;align=center;fontFamily=Helvetica;fontSize=11;fontColor=default;" parent="1" vertex="1">
          <mxGeometry x="-600" y="308.75" width="60" height="51.25" as="geometry" />
        </mxCell>
        <mxCell id="8r8kBKlHQmbd7kV8AP0j-291" style="edgeStyle=orthogonalEdgeStyle;shape=connector;rounded=0;orthogonalLoop=1;jettySize=auto;html=1;exitX=0;exitY=0.5;exitDx=0;exitDy=0;entryX=0.75;entryY=0;entryDx=0;entryDy=0;labelBackgroundColor=default;strokeColor=default;fontFamily=Helvetica;fontSize=11;fontColor=default;endArrow=none;endFill=0;" parent="1" source="8r8kBKlHQmbd7kV8AP0j-290" target="8r8kBKlHQmbd7kV8AP0j-158" edge="1">
          <mxGeometry relative="1" as="geometry" />
        </mxCell>
        <mxCell id="8r8kBKlHQmbd7kV8AP0j-290" value="amount" style="ellipse;whiteSpace=wrap;html=1;align=center;fontFamily=Helvetica;fontSize=11;fontColor=default;" parent="1" vertex="1">
          <mxGeometry x="-222.5" y="-235" width="52.5" height="35" as="geometry" />
        </mxCell>
        <mxCell id="8r8kBKlHQmbd7kV8AP0j-292" value="purpose" style="ellipse;whiteSpace=wrap;html=1;align=center;fontFamily=Helvetica;fontSize=11;fontColor=default;" parent="1" vertex="1">
          <mxGeometry x="-186.25" y="-153.75" width="52.5" height="25" as="geometry" />
        </mxCell>
        <mxCell id="8r8kBKlHQmbd7kV8AP0j-293" value="type" style="ellipse;whiteSpace=wrap;html=1;align=center;fontFamily=Helvetica;fontSize=11;fontColor=default;" parent="1" vertex="1">
          <mxGeometry x="-192.5" y="-195" width="52.5" height="25" as="geometry" />
        </mxCell>
        <mxCell id="8r8kBKlHQmbd7kV8AP0j-296" value="collateral" style="ellipse;whiteSpace=wrap;html=1;align=center;fontFamily=Helvetica;fontSize=11;fontColor=default;" parent="1" vertex="1">
          <mxGeometry x="-215" y="-125.93" width="70" height="30" as="geometry" />
        </mxCell>
        <mxCell id="8r8kBKlHQmbd7kV8AP0j-299" style="edgeStyle=orthogonalEdgeStyle;shape=connector;rounded=0;orthogonalLoop=1;jettySize=auto;html=1;exitX=0;exitY=0;exitDx=0;exitDy=0;entryX=0.336;entryY=1.028;entryDx=0;entryDy=0;entryPerimeter=0;labelBackgroundColor=default;strokeColor=default;fontFamily=Helvetica;fontSize=11;fontColor=default;endArrow=none;endFill=0;" parent="1" source="8r8kBKlHQmbd7kV8AP0j-298" target="8r8kBKlHQmbd7kV8AP0j-114" edge="1">
          <mxGeometry relative="1" as="geometry" />
        </mxCell>
        <mxCell id="8r8kBKlHQmbd7kV8AP0j-300" style="edgeStyle=orthogonalEdgeStyle;shape=connector;rounded=0;orthogonalLoop=1;jettySize=auto;html=1;exitX=1;exitY=0;exitDx=0;exitDy=0;entryX=0.536;entryY=1.017;entryDx=0;entryDy=0;entryPerimeter=0;labelBackgroundColor=default;strokeColor=default;fontFamily=Helvetica;fontSize=11;fontColor=default;endArrow=none;endFill=0;" parent="1" source="8r8kBKlHQmbd7kV8AP0j-298" target="8r8kBKlHQmbd7kV8AP0j-114" edge="1">
          <mxGeometry relative="1" as="geometry" />
        </mxCell>
        <mxCell id="8r8kBKlHQmbd7kV8AP0j-304" style="edgeStyle=orthogonalEdgeStyle;shape=connector;rounded=0;orthogonalLoop=1;jettySize=auto;html=1;exitX=0;exitY=0.5;exitDx=0;exitDy=0;entryX=0.5;entryY=0;entryDx=0;entryDy=0;labelBackgroundColor=default;strokeColor=default;fontFamily=Helvetica;fontSize=11;fontColor=default;endArrow=none;endFill=0;" parent="1" source="8r8kBKlHQmbd7kV8AP0j-298" target="8r8kBKlHQmbd7kV8AP0j-302" edge="1">
          <mxGeometry relative="1" as="geometry" />
        </mxCell>
        <mxCell id="8r8kBKlHQmbd7kV8AP0j-305" style="edgeStyle=orthogonalEdgeStyle;shape=connector;rounded=0;orthogonalLoop=1;jettySize=auto;html=1;exitX=1;exitY=0.5;exitDx=0;exitDy=0;entryX=0.5;entryY=0;entryDx=0;entryDy=0;labelBackgroundColor=default;strokeColor=default;fontFamily=Helvetica;fontSize=11;fontColor=default;endArrow=none;endFill=0;" parent="1" source="8r8kBKlHQmbd7kV8AP0j-298" target="8r8kBKlHQmbd7kV8AP0j-303" edge="1">
          <mxGeometry relative="1" as="geometry" />
        </mxCell>
        <mxCell id="8r8kBKlHQmbd7kV8AP0j-298" value="d" style="ellipse;whiteSpace=wrap;html=1;aspect=fixed;fontFamily=Helvetica;fontSize=11;fontColor=default;" parent="1" vertex="1">
          <mxGeometry x="-810" y="100" width="30" height="30" as="geometry" />
        </mxCell>
        <mxCell id="8r8kBKlHQmbd7kV8AP0j-311" value="" style="edgeStyle=orthogonalEdgeStyle;shape=connector;rounded=0;orthogonalLoop=1;jettySize=auto;html=1;labelBackgroundColor=default;strokeColor=default;fontFamily=Helvetica;fontSize=11;fontColor=default;endArrow=none;endFill=0;" parent="1" source="8r8kBKlHQmbd7kV8AP0j-302" target="8r8kBKlHQmbd7kV8AP0j-310" edge="1">
          <mxGeometry relative="1" as="geometry" />
        </mxCell>
        <mxCell id="8r8kBKlHQmbd7kV8AP0j-302" value="Credit Card Transaction" style="whiteSpace=wrap;html=1;align=center;fontFamily=Helvetica;fontSize=11;fontColor=default;" parent="1" vertex="1">
          <mxGeometry x="-885" y="152.5" width="80" height="30" as="geometry" />
        </mxCell>
        <mxCell id="8r8kBKlHQmbd7kV8AP0j-313" style="edgeStyle=orthogonalEdgeStyle;shape=connector;rounded=0;orthogonalLoop=1;jettySize=auto;html=1;exitX=0.75;exitY=1;exitDx=0;exitDy=0;entryX=0.5;entryY=0;entryDx=0;entryDy=0;labelBackgroundColor=default;strokeColor=default;fontFamily=Helvetica;fontSize=11;fontColor=default;endArrow=none;endFill=0;" parent="1" source="8r8kBKlHQmbd7kV8AP0j-303" target="8r8kBKlHQmbd7kV8AP0j-312" edge="1">
          <mxGeometry relative="1" as="geometry" />
        </mxCell>
        <mxCell id="8r8kBKlHQmbd7kV8AP0j-303" value="Bank Account Transaction" style="whiteSpace=wrap;html=1;align=center;fontFamily=Helvetica;fontSize=11;fontColor=default;" parent="1" vertex="1">
          <mxGeometry x="-776.25" y="147.5" width="70" height="35" as="geometry" />
        </mxCell>
        <mxCell id="8r8kBKlHQmbd7kV8AP0j-309" style="edgeStyle=orthogonalEdgeStyle;shape=connector;rounded=0;orthogonalLoop=1;jettySize=auto;html=1;exitX=1;exitY=1;exitDx=0;exitDy=0;entryX=0.649;entryY=0.987;entryDx=0;entryDy=0;entryPerimeter=0;labelBackgroundColor=default;strokeColor=default;fontFamily=Helvetica;fontSize=11;fontColor=default;endArrow=ERzeroToMany;endFill=0;" parent="1" source="8r8kBKlHQmbd7kV8AP0j-306" target="8r8kBKlHQmbd7kV8AP0j-137" edge="1">
          <mxGeometry relative="1" as="geometry" />
        </mxCell>
        <mxCell id="8r8kBKlHQmbd7kV8AP0j-306" value="handles" style="shape=rhombus;perimeter=rhombusPerimeter;whiteSpace=wrap;html=1;align=center;fontFamily=Helvetica;fontSize=11;fontColor=default;" parent="1" vertex="1">
          <mxGeometry x="-792.5" y="-85" width="60" height="40" as="geometry" />
        </mxCell>
        <mxCell id="8r8kBKlHQmbd7kV8AP0j-310" value="credit card number" style="ellipse;whiteSpace=wrap;html=1;align=center;fontFamily=Helvetica;fontSize=11;fontColor=default;" parent="1" vertex="1">
          <mxGeometry x="-1000" y="147.5" width="90" height="40" as="geometry" />
        </mxCell>
        <mxCell id="8r8kBKlHQmbd7kV8AP0j-312" value="account number" style="ellipse;whiteSpace=wrap;html=1;align=center;fontFamily=Helvetica;fontSize=11;fontColor=default;" parent="1" vertex="1">
          <mxGeometry x="-726.25" y="227.5" width="60" height="40" as="geometry" />
        </mxCell>
        <mxCell id="8r8kBKlHQmbd7kV8AP0j-314" value="Points" style="shape=ext;margin=3;double=1;whiteSpace=wrap;html=1;align=center;fontFamily=Helvetica;fontSize=11;fontColor=default;" parent="1" vertex="1">
          <mxGeometry x="-908.75" y="315" width="100" height="40" as="geometry" />
        </mxCell>
        <mxCell id="8r8kBKlHQmbd7kV8AP0j-316" value="has" style="shape=rhombus;double=1;perimeter=rhombusPerimeter;whiteSpace=wrap;html=1;align=center;fontFamily=Helvetica;fontSize=11;fontColor=default;" parent="1" vertex="1">
          <mxGeometry x="-1055" y="309.37" width="70" height="50" as="geometry" />
        </mxCell>
        <mxCell id="8r8kBKlHQmbd7kV8AP0j-319" style="edgeStyle=orthogonalEdgeStyle;shape=connector;rounded=0;orthogonalLoop=1;jettySize=auto;html=1;exitX=0.5;exitY=0;exitDx=0;exitDy=0;entryX=0.5;entryY=1;entryDx=0;entryDy=0;labelBackgroundColor=default;strokeColor=default;fontFamily=Helvetica;fontSize=11;fontColor=default;endArrow=none;endFill=0;" parent="1" source="8r8kBKlHQmbd7kV8AP0j-318" target="8r8kBKlHQmbd7kV8AP0j-71" edge="1">
          <mxGeometry relative="1" as="geometry" />
        </mxCell>
        <mxCell id="8r8kBKlHQmbd7kV8AP0j-318" value="destination&lt;br&gt;country" style="ellipse;whiteSpace=wrap;html=1;align=center;fontFamily=Helvetica;fontSize=11;fontColor=default;" parent="1" vertex="1">
          <mxGeometry x="-93.75" y="380" width="83.75" height="30" as="geometry" />
        </mxCell>
        <mxCell id="8r8kBKlHQmbd7kV8AP0j-321" style="edgeStyle=orthogonalEdgeStyle;shape=connector;rounded=0;orthogonalLoop=1;jettySize=auto;html=1;exitX=0.5;exitY=0;exitDx=0;exitDy=0;entryX=0;entryY=1;entryDx=0;entryDy=0;labelBackgroundColor=default;strokeColor=default;fontFamily=Helvetica;fontSize=11;fontColor=default;endArrow=none;endFill=0;" parent="1" source="8r8kBKlHQmbd7kV8AP0j-320" target="8r8kBKlHQmbd7kV8AP0j-71" edge="1">
          <mxGeometry relative="1" as="geometry" />
        </mxCell>
        <mxCell id="8r8kBKlHQmbd7kV8AP0j-320" value="fee" style="ellipse;whiteSpace=wrap;html=1;align=center;fontFamily=Helvetica;fontSize=11;fontColor=default;" parent="1" vertex="1">
          <mxGeometry x="-122.5" y="402.5" width="36.25" height="22.5" as="geometry" />
        </mxCell>
        <mxCell id="8r8kBKlHQmbd7kV8AP0j-322" value="monthly salary" style="ellipse;whiteSpace=wrap;html=1;align=center;fontFamily=Helvetica;fontSize=11;fontColor=default;" parent="1" vertex="1">
          <mxGeometry x="-447.5" y="-143.12" width="52.5" height="33.12" as="geometry" />
        </mxCell>
        <mxCell id="8r8kBKlHQmbd7kV8AP0j-325" value="limit" style="ellipse;whiteSpace=wrap;html=1;align=center;fontFamily=Helvetica;fontSize=11;fontColor=default;" parent="1" vertex="1">
          <mxGeometry x="-395" y="-135.93" width="35" height="25.93" as="geometry" />
        </mxCell>
        <mxCell id="8r8kBKlHQmbd7kV8AP0j-328" style="edgeStyle=orthogonalEdgeStyle;shape=connector;rounded=0;orthogonalLoop=1;jettySize=auto;html=1;exitX=0.5;exitY=0;exitDx=0;exitDy=0;entryX=0.25;entryY=1;entryDx=0;entryDy=0;labelBackgroundColor=default;strokeColor=default;fontFamily=Helvetica;fontSize=11;fontColor=default;endArrow=none;endFill=0;" parent="1" source="8r8kBKlHQmbd7kV8AP0j-327" target="8r8kBKlHQmbd7kV8AP0j-11" edge="1">
          <mxGeometry relative="1" as="geometry" />
        </mxCell>
        <mxCell id="8r8kBKlHQmbd7kV8AP0j-327" value="name" style="ellipse;whiteSpace=wrap;html=1;align=center;fontFamily=Helvetica;fontSize=11;fontColor=default;" parent="1" vertex="1">
          <mxGeometry x="-1115" y="-68.75" width="50" height="30" as="geometry" />
        </mxCell>
        <mxCell id="8r8kBKlHQmbd7kV8AP0j-329" value="receiver IBAN" style="ellipse;whiteSpace=wrap;html=1;align=center;fontFamily=Helvetica;fontSize=11;fontColor=default;" parent="1" vertex="1">
          <mxGeometry x="-250" y="377.5" width="70" height="30" as="geometry" />
        </mxCell>
        <mxCell id="8r8kBKlHQmbd7kV8AP0j-331" value="receiver SWIFT" style="ellipse;whiteSpace=wrap;html=1;align=center;fontFamily=Helvetica;fontSize=11;fontColor=default;" parent="1" vertex="1">
          <mxGeometry x="-201.25" y="407.5" width="70" height="30" as="geometry" />
        </mxCell>
        <mxCell id="8r8kBKlHQmbd7kV8AP0j-335" style="edgeStyle=orthogonalEdgeStyle;shape=connector;rounded=0;orthogonalLoop=1;jettySize=auto;html=1;exitX=1;exitY=0.5;exitDx=0;exitDy=0;entryX=0;entryY=0;entryDx=0;entryDy=0;labelBackgroundColor=default;strokeColor=default;fontFamily=Helvetica;fontSize=11;fontColor=default;endArrow=none;endFill=0;" parent="1" source="8r8kBKlHQmbd7kV8AP0j-334" target="8r8kBKlHQmbd7kV8AP0j-59" edge="1">
          <mxGeometry relative="1" as="geometry" />
        </mxCell>
        <mxCell id="8r8kBKlHQmbd7kV8AP0j-334" value="time" style="ellipse;whiteSpace=wrap;html=1;align=center;fontFamily=Helvetica;fontSize=11;fontColor=default;" parent="1" vertex="1">
          <mxGeometry x="-295" y="207.5" width="40" height="20" as="geometry" />
        </mxCell>
        <mxCell id="8r8kBKlHQmbd7kV8AP0j-337" style="edgeStyle=orthogonalEdgeStyle;shape=connector;rounded=0;orthogonalLoop=1;jettySize=auto;html=1;exitX=1;exitY=0;exitDx=0;exitDy=0;entryX=0;entryY=0.5;entryDx=0;entryDy=0;labelBackgroundColor=default;strokeColor=default;fontFamily=Helvetica;fontSize=11;fontColor=default;endArrow=none;endFill=0;" parent="1" source="8r8kBKlHQmbd7kV8AP0j-336" target="8r8kBKlHQmbd7kV8AP0j-59" edge="1">
          <mxGeometry relative="1" as="geometry" />
        </mxCell>
        <mxCell id="8r8kBKlHQmbd7kV8AP0j-336" value="date" style="ellipse;whiteSpace=wrap;html=1;align=center;fontFamily=Helvetica;fontSize=11;fontColor=default;" parent="1" vertex="1">
          <mxGeometry x="-295" y="232.5" width="40" height="30" as="geometry" />
        </mxCell>
        <mxCell id="8r8kBKlHQmbd7kV8AP0j-338" value="amount in foreign currency" style="ellipse;whiteSpace=wrap;html=1;align=center;fontFamily=Helvetica;fontSize=11;fontColor=default;" parent="1" vertex="1">
          <mxGeometry x="-101.87" y="425" width="100" height="40" as="geometry" />
        </mxCell>
        <mxCell id="8r8kBKlHQmbd7kV8AP0j-347" style="edgeStyle=orthogonalEdgeStyle;shape=connector;rounded=0;orthogonalLoop=1;jettySize=auto;html=1;exitX=0.5;exitY=1;exitDx=0;exitDy=0;entryX=0.75;entryY=0;entryDx=0;entryDy=0;labelBackgroundColor=default;strokeColor=default;fontFamily=Helvetica;fontSize=11;fontColor=default;endArrow=none;endFill=0;" parent="1" source="8r8kBKlHQmbd7kV8AP0j-346" target="8r8kBKlHQmbd7kV8AP0j-71" edge="1">
          <mxGeometry relative="1" as="geometry" />
        </mxCell>
        <mxCell id="8r8kBKlHQmbd7kV8AP0j-346" value="bank branch" style="ellipse;whiteSpace=wrap;html=1;align=center;fontFamily=Helvetica;fontSize=11;fontColor=default;" parent="1" vertex="1">
          <mxGeometry x="-62.5" y="247.5" width="50" height="30" as="geometry" />
        </mxCell>
        <mxCell id="8r8kBKlHQmbd7kV8AP0j-352" style="edgeStyle=orthogonalEdgeStyle;shape=connector;rounded=0;orthogonalLoop=1;jettySize=auto;html=1;exitX=0;exitY=0;exitDx=0;exitDy=0;labelBackgroundColor=default;strokeColor=default;fontFamily=Helvetica;fontSize=11;fontColor=default;endArrow=none;endFill=0;" parent="1" source="8r8kBKlHQmbd7kV8AP0j-348" edge="1">
          <mxGeometry relative="1" as="geometry">
            <mxPoint x="-795" y="-540" as="targetPoint" />
          </mxGeometry>
        </mxCell>
        <mxCell id="8r8kBKlHQmbd7kV8AP0j-353" style="edgeStyle=orthogonalEdgeStyle;shape=connector;rounded=0;orthogonalLoop=1;jettySize=auto;html=1;exitX=1;exitY=0;exitDx=0;exitDy=0;entryX=0.589;entryY=1.017;entryDx=0;entryDy=0;entryPerimeter=0;labelBackgroundColor=default;strokeColor=default;fontFamily=Helvetica;fontSize=11;fontColor=default;endArrow=none;endFill=0;" parent="1" source="8r8kBKlHQmbd7kV8AP0j-348" target="8r8kBKlHQmbd7kV8AP0j-133" edge="1">
          <mxGeometry relative="1" as="geometry" />
        </mxCell>
        <mxCell id="8r8kBKlHQmbd7kV8AP0j-356" style="edgeStyle=orthogonalEdgeStyle;shape=connector;rounded=0;orthogonalLoop=1;jettySize=auto;html=1;exitX=0;exitY=0.5;exitDx=0;exitDy=0;entryX=0.5;entryY=0;entryDx=0;entryDy=0;labelBackgroundColor=default;strokeColor=default;fontFamily=Helvetica;fontSize=11;fontColor=default;endArrow=none;endFill=0;" parent="1" source="8r8kBKlHQmbd7kV8AP0j-348" target="8r8kBKlHQmbd7kV8AP0j-354" edge="1">
          <mxGeometry relative="1" as="geometry" />
        </mxCell>
        <mxCell id="8r8kBKlHQmbd7kV8AP0j-357" style="edgeStyle=orthogonalEdgeStyle;shape=connector;rounded=0;orthogonalLoop=1;jettySize=auto;html=1;exitX=1;exitY=0.5;exitDx=0;exitDy=0;labelBackgroundColor=default;strokeColor=default;fontFamily=Helvetica;fontSize=11;fontColor=default;endArrow=none;endFill=0;" parent="1" source="8r8kBKlHQmbd7kV8AP0j-348" target="8r8kBKlHQmbd7kV8AP0j-355" edge="1">
          <mxGeometry relative="1" as="geometry" />
        </mxCell>
        <mxCell id="8r8kBKlHQmbd7kV8AP0j-348" value="d" style="ellipse;whiteSpace=wrap;html=1;aspect=fixed;" parent="1" vertex="1">
          <mxGeometry x="-797.5" y="-520" width="25" height="25" as="geometry" />
        </mxCell>
        <mxCell id="8r8kBKlHQmbd7kV8AP0j-354" value="Technical Issue" style="whiteSpace=wrap;html=1;align=center;fontFamily=Helvetica;fontSize=11;fontColor=default;" parent="1" vertex="1">
          <mxGeometry x="-860" y="-472.5" width="67.5" height="25" as="geometry" />
        </mxCell>
        <mxCell id="8r8kBKlHQmbd7kV8AP0j-359" style="edgeStyle=orthogonalEdgeStyle;shape=connector;rounded=0;orthogonalLoop=1;jettySize=auto;html=1;exitX=0.75;exitY=0;exitDx=0;exitDy=0;entryX=0;entryY=0.5;entryDx=0;entryDy=0;labelBackgroundColor=default;strokeColor=default;fontFamily=Helvetica;fontSize=11;fontColor=default;endArrow=none;endFill=0;" parent="1" source="8r8kBKlHQmbd7kV8AP0j-355" target="8r8kBKlHQmbd7kV8AP0j-358" edge="1">
          <mxGeometry relative="1" as="geometry" />
        </mxCell>
        <mxCell id="8r8kBKlHQmbd7kV8AP0j-355" value="Credit Card Issue" style="whiteSpace=wrap;html=1;align=center;fontFamily=Helvetica;fontSize=11;fontColor=default;" parent="1" vertex="1">
          <mxGeometry x="-781.85" y="-475" width="71.85" height="30" as="geometry" />
        </mxCell>
        <mxCell id="8r8kBKlHQmbd7kV8AP0j-358" value="Credit Card Number" style="ellipse;whiteSpace=wrap;html=1;align=center;fontFamily=Helvetica;fontSize=11;fontColor=default;" parent="1" vertex="1">
          <mxGeometry x="-690" y="-540" width="80" height="30" as="geometry" />
        </mxCell>
        <mxCell id="8r8kBKlHQmbd7kV8AP0j-363" style="edgeStyle=orthogonalEdgeStyle;shape=connector;rounded=0;orthogonalLoop=1;jettySize=auto;html=1;exitX=0.5;exitY=1;exitDx=0;exitDy=0;entryX=0;entryY=0.25;entryDx=0;entryDy=0;labelBackgroundColor=default;strokeColor=default;fontFamily=Helvetica;fontSize=11;fontColor=default;endArrow=ERmandOne;endFill=0;" parent="1" source="8r8kBKlHQmbd7kV8AP0j-362" target="8r8kBKlHQmbd7kV8AP0j-11" edge="1">
          <mxGeometry relative="1" as="geometry" />
        </mxCell>
        <mxCell id="8r8kBKlHQmbd7kV8AP0j-364" style="edgeStyle=orthogonalEdgeStyle;shape=connector;rounded=0;orthogonalLoop=1;jettySize=auto;html=1;exitX=0.5;exitY=0;exitDx=0;exitDy=0;entryX=0;entryY=0.5;entryDx=0;entryDy=0;labelBackgroundColor=default;strokeColor=default;fontFamily=Helvetica;fontSize=11;fontColor=default;endArrow=ERzeroToMany;endFill=0;" parent="1" source="8r8kBKlHQmbd7kV8AP0j-362" target="8r8kBKlHQmbd7kV8AP0j-354" edge="1">
          <mxGeometry relative="1" as="geometry" />
        </mxCell>
        <mxCell id="8r8kBKlHQmbd7kV8AP0j-362" value="receives and reviews" style="shape=rhombus;perimeter=rhombusPerimeter;whiteSpace=wrap;html=1;align=center;fontFamily=Helvetica;fontSize=11;fontColor=default;" parent="1" vertex="1">
          <mxGeometry x="-1330" y="-275" width="120" height="60" as="geometry" />
        </mxCell>
      </root>
    </mxGraphModel>
  </diagram>
</mxfile>
